<svg xmlns="http://www.w3.org/2000/svg" width="310px" height="310px" viewBox="0 0 672.232544 672.232544" version="1.1" id="svg5" xml:space="preserve" data-square-offset-x="99.41467199999997" data-square-offset-y="185.374587"><defs id="defs2" style="fill: rgb(4, 98, 15);"/><g id="layer1" transform="" style="fill: rgb(4, 98, 15);"><path style="fill: rgb(4, 98, 15); stroke-width: 0.999999;" d="m 275.4878719999998 486.77758700000027 c -11.009,-2.008 -21.506,-8.18 -38.051,-22.375 -11.589,-9.941 -18.254,-16.451 -57.076,-55.738 -33.577,-33.98 -47.912,-48.716 -58.283,-59.911 -16.482,-17.793 -17.443,-19.034 -20.002,-25.843 -1.716,-4.57 -2.386,-7.939 -2.61,-13.13 -0.224,-5.208 0.279,-9.341 1.671,-13.725 2.016,-6.348 4.822,-10.906 10.025,-16.281 10.221,-10.561 23.065,-17.236 61.959,-32.204 34.498,-13.277 75.729,-27.208 109.101,-36.865 44.687,-12.931 84.776,-23.216 97.438,-24.999 7.006,-0.986 12.838,0.164 21.555,4.253 6.432,3.017 6.055,2.774 55.769,35.78 22.407,14.876 29.74,19.618 47.142,30.483 7.131,4.452 16.222,10.175 20.203,12.717 3.983,2.542 9.488,5.825 12.235,7.295 4.94,2.644 24.606,14.137 30.25,17.678 2.995,1.879 5.115,3.887 5.683,5.382 0.177,0.465 0.321,1.669 0.321,2.675 0,1.607 -0.138,1.983 -1.146,3.098 -0.642,0.712 -2.432,1.93 -4.073,2.774 -7.239,3.721 -12.418,12.668 -13.644,23.571 -0.43,3.815 0,7.922 1.222,11.825 0.993,3.159 1.607,3.959 4.267,5.566 4.992,3.017 12.121,8.644 12.78,10.089 0.496,1.09 -0.142,2.958 -1.729,5.057 -1.375,1.819 -3.064,2.787 -8.115,4.648 -1.759,0.649 -5.927,2.183 -9.26,3.411 -7.928,2.918 -23.689,9.339 -32.999,13.443 -4.075,1.797 -11.348,4.978 -16.164,7.069 -4.814,2.092 -11.179,4.895 -14.142,6.23 -2.963,1.335 -9.1,4.065 -13.638,6.067 -7.989,3.524 -26.216,11.666 -41.081,18.35 -8.559,3.848 -29.375,13.042 -38.892,17.177 -3.703,1.609 -8.552,3.732 -10.775,4.718 -2.222,0.985 -9.117,3.988 -15.321,6.672 -6.204,2.684 -15.523,6.727 -20.709,8.984 -9.294,4.045 -14.059,6.085 -31.316,13.4 -12.009,5.091 -15.812,6.743 -20.693,8.987 -6.116,2.812 -9.41,3.585 -15.841,3.718 -2.872,0.06 -5.599,0.04 -6.061,-0.05 z m 12.716,-17.317 c 5.818,-0.944 19.089,-6.469 69.95,-29.119 29.987,-13.354 44.552,-19.794 61.285,-27.097 3.704,-1.617 14.538,-6.354 24.076,-10.527 26.705,-11.684 28.442,-12.436 61.116,-26.453 32.177,-13.803 45.696,-19.447 51.015,-21.297 1.759,-0.612 3.249,-1.149 3.31,-1.193 0.188,-0.136 -0.661,-1.61 -1.386,-2.406 -0.679,-0.746 -0.692,-0.747 -1.726,-0.119 -0.572,0.348 -3.541,1.649 -6.596,2.89 -8.942,3.632 -27.322,11.531 -43.27,18.596 -24.215,10.728 -25.23,11.175 -46.195,20.323 -11.077,4.834 -26.657,11.674 -34.62,15.201 -7.964,3.527 -21.525,9.519 -30.137,13.315 -22.151,9.766 -23.799,10.497 -29.632,13.139 -33.2,15.04 -59.41,26.146 -70.477,29.862 -5.465,1.835 -10.605,2.896 -11.805,2.435 -0.304,-0.117 -0.553,-0.44 -0.553,-0.718 0,-0.521 0.669,-0.752 8.4,-2.893 9.751,-2.701 26.059,-9.379 57.093,-23.383 15.294,-6.9 23.963,-10.9 34.515,-15.921 9.248,-4.402 28.61,-13.311 36.03,-16.579 1.574,-0.693 9.68,-4.294 18.015,-8.002 15.756,-7.01 22.231,-9.824 47.31,-20.559 12.559,-5.376 29.19,-12.602 51.857,-22.53 2.314,-1.014 7.088,-3.098 10.606,-4.631 8.392,-3.655 8.298,-3.609 8.138,-4.027 -1.919,-5.024 -2.365,-6.92 -2.51,-10.665 l -0.151,-3.906 -3.243,1.423 c -1.784,0.783 -6.653,2.674 -10.82,4.204 -9.016,3.31 -14.033,5.323 -23.066,9.259 -16.127,7.025 -23.96,10.269 -39.526,16.37 -4.7,1.842 -8.603,3.294 -8.672,3.225 -0.07,-0.07 6.126,-2.677 13.766,-5.795 13.049,-5.326 21.754,-9.099 36.116,-15.654 13.302,-6.072 31.048,-13.536 33.942,-14.277 l 1.65,-0.422 0.129,-1.626 c 0.07,-0.894 0.218,-1.908 0.328,-2.254 0.228,-0.719 0.44,-0.802 -8.269,3.248 -2.685,1.249 -6.169,2.803 -7.741,3.454 -3.281,1.359 -14.928,5.483 -15.073,5.338 -0.06,-0.05 1.08,-0.59 2.519,-1.193 1.439,-0.604 6.253,-2.772 10.698,-4.82 4.445,-2.047 10.341,-4.671 13.103,-5.83 l 5.021,-2.108 0.896,-2.635 c 1.102,-3.24 2.859,-6.799 4.686,-9.489 1.546,-2.277 1.654,-2.577 0.756,-2.096 -0.344,0.184 -6.821,2.596 -14.395,5.36 -7.574,2.764 -18.848,6.954 -25.052,9.31 -22.502,8.546 -29.32,11.098 -40.07,14.996 -21.672,7.859 -32.479,11.845 -51.857,19.124 -39.99,15.023 -73.469,27.378 -99.166,36.594 -16.83,6.037 -30.499,11.139 -35.862,13.389 -3.055,1.281 -7.298,2.955 -9.429,3.719 l -3.872,1.389 -5.219,0.01 c -6.278,0.02 -8.481,-0.409 -12.35,-2.384 -5.38,-2.745 -11.74,-7.696 -29.551,-23.006 -3.137,-2.696 -6.319,-5.43 -7.071,-6.075 -4.963,-4.252 -15.147,-13.315 -21.388,-19.031 -1.213,-1.111 -3.266,-2.924 -4.562,-4.029 -1.297,-1.105 -3.343,-2.923 -4.548,-4.041 -1.204,-1.117 -6.811,-6.065 -12.459,-10.994 -10.988,-9.59 -12.828,-11.237 -30.804,-27.573 -6.419,-5.834 -12.683,-11.497 -13.919,-12.585 -1.237,-1.088 -5.702,-5.312 -9.922,-9.387 -4.221,-4.074 -7.718,-7.351 -7.77,-7.282 -1.124,1.492 -2.839,7.566 -3.456,12.249 -1.265,9.591 0.79,18.476 6.182,26.727 2.276,3.482 16.832,17.757 28.888,28.328 2.217,1.945 6.237,5.506 8.932,7.914 2.695,2.407 7.312,6.498 10.26,9.091 2.949,2.593 7.167,6.381 9.376,8.418 2.207,2.038 5.091,4.672 6.408,5.855 6.255,5.621 19.855,18.973 45.158,44.338 29.366,29.437 32.349,32.181 38.026,34.993 4.39,2.176 7.214,2.829 12.315,2.848 2.315,0.01 5.159,-0.138 6.319,-0.327 z m -9.246,-2.057 c -1.143,-1.39 -8.977,-17.078 -9.881,-19.789 -2.065,-6.189 -2.321,-13.397 -0.798,-22.423 0.877,-5.194 1.746,-5.938 9.47,-8.102 15.737,-4.411 29.057,-8.542 43.197,-13.398 10.187,-3.499 13.859,-4.838 28.79,-10.499 10.197,-3.866 21.534,-7.918 21.168,-7.566 -0.791,0.762 -22.393,9.515 -41.397,16.775 -19.445,7.427 -25.95,9.576 -42.908,14.172 -9.268,2.513 -12.784,3.747 -13.516,4.745 -0.34,0.463 -0.883,2.054 -1.207,3.536 -0.833,3.802 -0.852,16.827 -0.03,20.035 0.862,3.362 1.227,4.168 1.71,3.786 0.228,-0.18 2.408,-0.656 4.844,-1.057 8.717,-1.435 28.961,-7.573 47.75,-14.477 2.029,-0.746 3.739,-1.307 3.799,-1.247 0.154,0.155 -6.446,3.093 -13.55,6.031 -7.015,2.902 -21.502,8.223 -26.917,9.888 -5.227,1.606 -11.739,2.875 -14.077,2.742 -2.296,-0.13 -2.394,-0.992 0.83,7.298 1.295,3.334 2.575,6.792 2.844,7.685 0.535,1.777 0.481,2.597 -0.122,1.865 z m 1.363,-5.513 c -0.48,-1.252 1.558,-2.141 11.497,-5.015 22.774,-6.586 40.62,-14.027 92.938,-38.752 8.519,-4.026 18.368,-8.652 21.887,-10.281 6.477,-2.997 12.097,-5.17 12.766,-4.935 0.394,0.138 -21.172,11.02 -35.042,17.682 -13.059,6.273 -20.137,9.498 -36.315,16.549 -2.037,0.888 -6.659,2.937 -10.27,4.554 -10.04,4.495 -22.95,9.835 -30.306,12.536 -6.231,2.287 -19.068,6.543 -22.176,7.351 -3.656,0.951 -4.708,1.017 -4.979,0.311 z m -12.107,-1.116 c -0.722,-0.523 -3.587,-3.151 -6.364,-5.84 -4.839,-4.683 -7.165,-6.812 -16.856,-15.432 -2.394,-2.13 -8.673,-8.237 -13.952,-13.571 -14.568,-14.718 -30.606,-30.044 -42.904,-40.998 -2.611,-2.326 -7.928,-7.606 -11.818,-11.735 -6.78,-7.198 -8.255,-8.893 -7.198,-8.269 4.093,2.412 8.999,6.9 13.607,12.446 3.212,3.866 6.804,7.46 10.994,11 9.488,8.015 28.273,26.091 35.46,34.122 7.563,8.45 10.698,11.266 21.554,19.367 9.733,7.262 16,13.18 18.431,17.409 1.507,2.621 1.218,3.075 -0.954,1.501 z m 8.813,-3.734 c -0.391,-0.434 -0.525,-0.835 -0.337,-1.013 0.172,-0.163 3.116,-1.159 6.541,-2.214 12.336,-3.799 45.955,-15.692 56.553,-20.006 1.379,-0.561 2.556,-0.972 2.615,-0.913 0.06,0.06 -1.448,0.831 -3.349,1.715 -17.735,8.245 -54.414,22.327 -59.818,22.965 -1.301,0.154 -1.663,0.07 -2.205,-0.534 z m -17.029,-11.723 c -2.131,-1.789 -7.282,-6.607 -11.45,-10.707 -7.186,-7.071 -11.079,-10.638 -22.231,-20.363 -14.312,-12.482 -16.324,-14.403 -33.739,-32.206 -3.83,-3.915 -9.357,-9.295 -12.282,-11.954 -2.923,-2.659 -8.424,-7.946 -12.222,-11.749 -3.799,-3.804 -9.549,-9.41 -12.779,-12.459 -5.094,-4.81 -15.008,-15.418 -14.698,-15.728 0.182,-0.182 23.737,23.361 28.519,28.505 2.481,2.669 6.859,6.906 9.73,9.416 2.871,2.51 11.583,10.949 19.362,18.753 10.002,10.035 17.396,17.086 25.254,24.086 6.112,5.443 12.475,11.11 14.14,12.593 1.665,1.483 6.515,6.106 10.778,10.273 4.261,4.167 9.528,9.145 11.704,11.062 3.454,3.045 4.229,3.794 3.87,3.742 -0.05,-0.01 -1.827,-1.476 -3.956,-3.264 z m 1.311,-4.906 c -10.832,-8.766 -31.552,-27.423 -53.159,-47.869 -1.949,-1.845 -9.984,-9.652 -17.855,-17.35 -7.871,-7.699 -15.879,-15.507 -17.795,-17.353 -1.916,-1.847 -3.638,-3.661 -3.826,-4.033 -0.378,-0.747 1.683,1.214 15.055,14.321 10.632,10.422 19.705,19.093 33.638,32.146 22.681,21.249 27.956,26.041 38.421,34.896 8.06,6.82 10.193,8.683 9.934,8.679 -0.1,0 -2.079,-1.548 -4.413,-3.437 z m 11.189,3.177 c -0.59,-0.39 -0.26,-0.926 0.959,-1.556 0.527,-0.273 4.57,-1.494 8.986,-2.715 11.898,-3.29 26.675,-7.806 41.856,-12.792 4.16,-1.367 7.61,-2.437 7.668,-2.379 0.06,0.06 -0.618,0.374 -1.502,0.703 -0.884,0.328 -6.001,2.304 -11.372,4.391 -26.156,10.162 -44.423,15.787 -46.595,14.348 z m 0.38,-6.68 c -0.945,-0.351 -0.311,-1.103 1.5,-1.781 1.057,-0.395 4.649,-1.328 7.982,-2.072 15.71,-3.509 35.819,-9.52 60.61,-18.118 10.536,-3.654 14.217,-4.714 7.7,-2.219 -5.162,1.977 -32.991,11.997 -39.153,14.096 -14.541,4.956 -28.587,8.766 -37.208,10.095 -0.556,0.09 -1.2,0.08 -1.431,0 z m 8.671,-6.131 c 0.623,-0.353 2.991,-1.171 16.766,-5.79 18.708,-6.274 24.038,-8.306 36.773,-14.023 4.771,-2.141 20.13,-8.358 38.821,-15.713 9.523,-3.748 11.854,-4.741 24.148,-10.29 19.59,-8.841 25.462,-11.427 33.336,-14.677 9.795,-4.044 17.218,-6.95 17.369,-6.799 0.07,0.06 -3.554,1.687 -8.039,3.609 -9.758,4.184 -21.115,9.319 -30.541,13.808 -16.07,7.655 -33.099,14.804 -56.574,23.749 -11.586,4.415 -16.782,6.589 -24.749,10.354 -3.705,1.75 -8.25,3.797 -10.103,4.548 -6.466,2.625 -20.255,7.052 -30.747,9.873 -6.057,1.628 -7.474,1.924 -6.46,1.351 z m -8.419,-2.306 c 0,-0.764 4.352,-2.354 15.827,-5.779 4.351,-1.3 9.116,-2.818 10.588,-3.374 1.471,-0.556 2.729,-0.957 2.795,-0.891 0.421,0.421 -20.149,8.188 -25.071,9.467 -3.401,0.884 -4.139,0.987 -4.139,0.577 z m 80.058,-2.362 c 1.572,-1.205 6.6,-3.907 10.592,-5.692 2.277,-1.017 9.783,-3.961 16.681,-6.542 13.525,-5.06 19.774,-7.627 31.065,-12.762 10.794,-4.909 37.646,-16.005 37.962,-15.688 0.07,0.06 -1.445,0.765 -3.35,1.56 -1.906,0.795 -7.101,3 -11.547,4.899 -7.583,3.24 -10.616,4.591 -25.423,11.317 -7.859,3.571 -19.875,8.626 -36.03,15.158 -7.315,2.957 -14.836,6.045 -16.715,6.862 -3.672,1.597 -4.431,1.805 -3.235,0.888 z m -79.463,-1.711 c 0.84,-0.739 2.346,-1.262 10.348,-3.594 2.964,-0.864 7.509,-2.225 10.103,-3.025 2.592,-0.8 8.025,-2.459 12.073,-3.686 4.048,-1.226 11.16,-3.585 15.803,-5.242 8.595,-3.065 11.628,-3.909 5.046,-1.404 -26.662,10.147 -46.898,16.898 -52.262,17.435 l -1.874,0.187 z m 69.782,0.116 c 0,-0.209 18.192,-9.169 25.086,-12.356 9.866,-4.56 29.126,-13.018 42.259,-18.558 13.309,-5.615 17.713,-7.512 30.81,-13.274 7.915,-3.481 16.334,-7.023 17.342,-7.295 l 0.842,-0.226 -0.881,0.504 c -0.485,0.278 -4.349,2.01 -8.587,3.849 -9.531,4.136 -14.969,6.573 -26.393,11.826 -4.908,2.257 -11.424,5.215 -14.48,6.574 -15.091,6.71 -27.665,12.231 -39.902,17.519 -14.079,6.083 -23.148,10.094 -25.002,11.057 -0.602,0.313 -1.094,0.484 -1.094,0.38 z m -99.336,-7.286 c -9.316,-7.668 -14.236,-12.136 -24.244,-22.013 -6.14,-6.06 -12.92,-12.364 -16.857,-15.672 -15.975,-13.423 -28.192,-24.123 -33.652,-29.473 -3.242,-3.175 -6.573,-6.361 -7.404,-7.08 -9.079,-7.859 -33.628,-31.868 -37.489,-36.665 -1.044,-1.296 -2.801,-3.414 -3.904,-4.707 -3.236,-3.789 -1.986,-3.018 1.915,1.18 4.335,4.666 23.772,23.849 32.402,31.978 3.427,3.227 9.411,8.983 13.301,12.79 3.889,3.808 8.435,8.13 10.102,9.605 1.666,1.475 4.167,3.745 5.557,5.045 4.446,4.159 15.811,14.063 24.727,21.548 3.947,3.314 13.066,11.829 22.919,21.4 2.778,2.699 7.551,7.08 10.607,9.736 6.054,5.261 6.965,6.085 6.725,6.076 -0.09,0 -2.204,-1.69 -4.705,-3.748 z m -0.673,-7.42 c -3.241,-2.784 -7.03,-6.047 -8.419,-7.251 -1.388,-1.204 -6.313,-5.861 -10.943,-10.348 -9.749,-9.45 -13.477,-12.927 -18.606,-17.359 -2.037,-1.76 -3.647,-3.261 -3.581,-3.336 0.152,-0.168 4.314,2.573 7.034,4.634 5.078,3.846 8.839,7.322 19.193,17.737 6.112,6.148 13.462,13.391 16.332,16.097 2.87,2.705 5.144,4.912 5.051,4.903 -0.1,-0.01 -2.82,-2.293 -6.061,-5.077 z m 111.12,1.072 c 0.278,-0.18 0.657,-0.327 0.842,-0.327 0.185,0 0.11,0.147 -0.168,0.327 -0.278,0.179 -0.657,0.326 -0.842,0.326 -0.185,0 -0.11,-0.147 0.168,-0.326 z m -23.234,-5.388 c 0.278,-0.18 0.657,-0.326 0.842,-0.326 0.185,0 0.109,0.146 -0.169,0.326 -0.277,0.18 -0.656,0.326 -0.842,0.326 -0.185,0 -0.108,-0.146 0.169,-0.326 z m 105.564,-11.796 c 0.371,-0.165 3.174,-1.356 6.23,-2.645 3.056,-1.289 9.647,-4.149 14.648,-6.354 5,-2.206 11.213,-4.889 13.806,-5.961 5.593,-2.314 15.838,-6.769 21.719,-9.443 11.649,-5.297 15.117,-6.842 20.509,-9.132 3.224,-1.37 5.93,-2.423 6.013,-2.34 0.181,0.182 -16.466,8.385 -26.354,12.987 -3.889,1.81 -11.087,4.96 -15.995,7.001 -4.908,2.04 -11.347,4.727 -14.311,5.971 -7.138,2.998 -15.353,6.226 -21.508,8.452 -4.548,1.645 -6.51,2.249 -4.757,1.464 z m -47.281,-2.483 c 0.08,-0.08 2.867,-1.221 6.201,-2.547 3.333,-1.325 8.258,-3.37 10.944,-4.544 12.991,-5.683 16.42,-7.121 26.433,-11.089 17.548,-6.955 22.096,-8.845 31.484,-13.088 11.278,-5.097 19.603,-8.683 27.948,-12.036 8.037,-3.23 17.581,-6.773 17.761,-6.594 0.08,0.07 -3.628,1.608 -8.225,3.412 -17.976,7.055 -18.87,7.447 -43.545,19.089 -8.963,4.228 -39.459,16.949 -49.836,20.788 -3.056,1.13 -7.147,2.653 -9.091,3.383 -3.077,1.155 -9.672,3.355 -10.074,3.36 -0.08,0 -0.08,-0.06 0,-0.134 z m 60.919,-6.427 c 0,-0.23 2.062,-1.252 2.216,-1.098 0.08,0.07 -0.396,0.385 -1.042,0.693 -0.645,0.308 -1.174,0.49 -1.174,0.405 z m 0.194,-1.847 c 0.555,-0.555 14.624,-6.853 14.836,-6.641 0.125,0.125 -10.483,5.342 -12.167,5.984 -1.858,0.707 -3,0.989 -2.669,0.657 z m -20.151,-2.407 c 0.228,-0.23 0.5,-0.333 0.605,-0.23 0.103,0.104 -0.09,0.292 -0.416,0.419 -0.48,0.183 -0.519,0.144 -0.189,-0.189 z m 1.774,-0.71 c 0.1,-0.103 5.244,-2.608 11.448,-5.567 10.234,-4.88 20.854,-9.347 21.619,-9.092 0.165,0.05 -6.942,3.31 -15.794,7.233 -16.101,7.134 -17.588,7.774 -17.273,7.426 z m -229.729,-5.057 c -1.908,-1.713 -5.422,-4.781 -7.809,-6.818 -4.989,-4.259 -7.158,-6.169 -13.388,-11.793 -2.465,-2.227 -5.998,-5.35 -7.851,-6.94 -4.627,-3.974 -9.466,-8.598 -9.242,-8.832 0.194,-0.202 5.575,4.52 17.814,15.63 3.991,3.622 9.907,8.906 13.147,11.742 5.751,5.032 11.261,10.126 10.951,10.126 -0.09,0 -1.715,-1.401 -3.622,-3.115 z m 203.801,-1.434 c 0,-0.09 2.858,-1.593 6.353,-3.342 4.93,-2.467 8.343,-3.87 15.237,-6.263 11.313,-3.927 16.48,-5.831 22.303,-8.221 2.564,-1.052 4.722,-1.856 4.792,-1.785 0.21,0.21 -8.741,4.564 -13.666,6.648 -4.702,1.991 -9.417,3.748 -20.354,7.588 -3.51,1.232 -7.526,2.696 -8.924,3.254 -1.398,0.558 -3.263,1.299 -4.142,1.648 -0.88,0.349 -1.599,0.562 -1.599,0.473 z m 67.71,0.03 c 0.08,-0.08 1.732,-0.771 3.676,-1.545 7.148,-2.843 14.162,-5.884 21.719,-9.415 16.463,-7.691 41.275,-18.494 48.288,-21.024 2.335,-0.843 3.255,-0.923 2.536,-0.222 -0.639,0.623 -6.51,3.347 -10.922,5.067 -14.112,5.504 -30.111,12.307 -41.586,17.684 -7.836,3.672 -24.64,10.373 -23.711,9.455 z m -313.24,-12.945 c -3.952,-4.048 -13.605,-13.632 -21.451,-21.299 -9.008,-8.801 -15.305,-15.24 -17.088,-17.472 -1.553,-1.943 -2.825,-3.647 -2.825,-3.785 0,-0.138 0.858,0.694 1.907,1.85 1.049,1.156 10.027,10.287 19.951,20.291 16.812,16.946 27.286,27.774 26.868,27.774 -0.1,0 -3.411,-3.312 -7.362,-7.359 z m 37.823,3.654 c -1.729,-1.455 -5.214,-4.046 -7.745,-5.758 -7.646,-5.172 -9.635,-6.848 -18.911,-15.943 -3.057,-2.996 -8.208,-7.883 -11.45,-10.861 -3.24,-2.978 -6.498,-6.055 -7.239,-6.839 -1.935,-2.046 -0.385,-1.126 2.409,1.43 1.268,1.161 4.503,3.994 7.188,6.296 2.685,2.302 7.461,6.772 10.613,9.934 7.504,7.527 9.914,9.612 17.111,14.807 3.304,2.384 7.243,5.519 8.755,6.968 1.512,1.449 2.674,2.629 2.581,2.623 -0.1,-0.01 -1.583,-1.202 -3.312,-2.657 z m -47.416,-18.475 c -8.918,-9.006 -18.22,-18.572 -20.672,-21.258 -2.451,-2.685 -6.14,-6.701 -8.197,-8.923 -5.507,-5.95 -2.55,-3.202 8.253,7.668 17.575,17.686 38.147,39.365 36.942,38.928 -0.07,-0.02 -7.409,-7.409 -16.326,-16.415 z m 382.635,7.362 c 0.492,-0.448 16.033,-7.743 16.496,-7.743 1.449,0 -0.445,1.691 -3.424,3.057 -2.532,1.161 -13.53,5.104 -13.072,4.686 z m -50.724,-7.223 c 5.072,-2.586 15.136,-6.608 26.588,-10.625 11.395,-3.997 18.217,-6.57 25.423,-9.589 18.946,-7.939 19.94,-8.28 18.999,-6.523 -0.629,1.175 -7.955,4.489 -18.326,8.29 -12.625,4.626 -15.812,5.753 -25.928,9.165 -11.359,3.832 -20.358,7.101 -25.883,9.4 -1.828,0.761 -3.419,1.375 -3.536,1.366 -0.118,-0.01 1.081,-0.677 2.663,-1.484 z m -330.177,-18.564 c -6.656,-6.434 -20.305,-19.071 -24.749,-22.916 -4.091,-3.538 -6.013,-5.549 -7.417,-7.765 -1.943,-3.063 -0.891,-3.396 1.563,-0.494 0.913,1.08 3.811,3.997 6.44,6.482 4.177,3.95 29.631,29.63 29.328,29.59 -0.07,-0.01 -2.387,-2.212 -5.165,-4.897 z m -23.126,-10.662 c -4.712,-4.676 -9.228,-9.335 -10.034,-10.354 l -1.467,-1.852 2.186,2.189 c 6.58,6.585 18.22,18.52 18.063,18.52 -0.101,0 -4.037,-3.826 -8.748,-8.503 z m 199.376,146.684 c 0.462,-0.404 -0.635,-0.03 -1.171,0.401 -0.616,0.494 -0.605,0.501 0.189,0.123 0.463,-0.22 0.905,-0.456 0.982,-0.524 z m 10.515,-4.469 c 4.696,-2.02 11.038,-4.763 14.094,-6.095 13.918,-6.065 50.651,-21.91 60.274,-25.999 8.445,-3.588 13.484,-5.674 24.75,-10.247 10.399,-4.221 42.099,-17.597 46.974,-19.821 2.315,-1.056 8.678,-4.084 14.142,-6.73 5.464,-2.645 13.419,-6.248 17.678,-8.007 4.26,-1.759 10.473,-4.541 13.806,-6.183 3.335,-1.642 8.751,-4.257 12.039,-5.811 3.287,-1.555 5.977,-2.958 5.977,-3.119 0,-0.16 -0.569,-0.05 -1.263,0.248 -0.695,0.297 -3.308,1.349 -5.809,2.336 -7.434,2.937 -20.754,8.387 -25.087,10.264 -2.222,0.964 -6.692,2.813 -9.933,4.109 -19.069,7.629 -33.426,13.896 -56.739,24.768 -5.555,2.592 -11.616,5.354 -13.469,6.139 -8.393,3.557 -19.288,8.348 -23.907,10.515 -2.778,1.303 -8.839,4.15 -13.469,6.326 -4.631,2.177 -10.54,4.906 -13.133,6.066 -2.593,1.16 -6.153,2.759 -7.913,3.553 -3.231,1.459 -10.42,4.635 -33.969,15.01 -7.108,3.131 -13.169,5.836 -13.469,6.012 -1.439,0.84 0.567,0.05 8.426,-3.334 z m -124.134,-32.091 c -9.615,-9.207 -15.4,-15.056 -21.735,-21.974 -7.143,-7.802 -14.358,-15.02 -20.694,-20.704 -2.777,-2.491 -7.89,-7.331 -11.363,-10.756 -3.472,-3.424 -6.313,-6.114 -6.313,-5.978 0,0.137 2.344,2.931 5.21,6.21 7.409,8.48 30.99,32.122 42.088,42.198 5.178,4.702 11.618,10.55 14.311,12.996 2.691,2.445 4.971,4.449 5.063,4.452 0.1,0 -2.862,-2.897 -6.567,-6.444 z m 41.207,-35.172 c -0.255,-0.308 -3.265,-2.939 -6.692,-5.848 -3.426,-2.909 -10.32,-8.966 -15.321,-13.46 -5,-4.495 -10.38,-9.218 -11.954,-10.496 -1.574,-1.278 -8.014,-6.471 -14.311,-11.539 -6.297,-5.068 -14.554,-11.717 -18.351,-14.776 -3.796,-3.059 -6.974,-5.49 -7.061,-5.402 -0.09,0.09 0.367,0.567 1.008,1.066 2.643,2.057 10.993,9.671 16.853,15.368 11.108,10.8 18.025,16.553 37.52,31.201 6.112,4.592 12.779,9.707 14.817,11.368 3.893,3.174 4.24,3.424 3.492,2.518 z m 85.236,-7.185 c 25.183,-8.563 27.479,-9.387 51.182,-18.357 9.82,-3.716 20.148,-7.52 36.535,-13.456 19.848,-7.19 26.834,-9.934 41.586,-16.334 13.186,-5.72 37.457,-15.337 53.944,-21.373 6.805,-2.491 7.873,-3.282 1.785,-1.321 -2.592,0.834 -9.022,2.805 -14.287,4.379 -13.002,3.888 -18.887,5.899 -28.983,9.906 -8.428,3.345 -20.322,7.993 -33.336,13.029 -8.482,3.281 -10.585,4.105 -24.918,9.755 -12.68,4.998 -21.201,8.478 -32.158,13.135 -15.861,6.741 -40.545,16.239 -59.937,23.062 -3.704,1.304 -7.114,2.589 -7.577,2.856 -0.542,0.314 -0.602,0.408 -0.168,0.265 0.371,-0.121 7.719,-2.617 16.332,-5.546 z m -150.804,-58.17 c -0.747,-0.88 -4.414,-4.63 -8.148,-8.334 -3.733,-3.704 -8.478,-8.535 -10.542,-10.736 -2.065,-2.201 -6.557,-6.581 -9.983,-9.733 -3.427,-3.151 -9.066,-8.596 -12.533,-12.099 l -6.303,-6.369 -1.166,0.93 c -0.867,0.692 -1.092,1.067 -0.878,1.468 0.437,0.815 11.836,11.879 15.838,15.372 1.94,1.693 6.036,5.253 9.102,7.913 10.426,9.042 15.966,13.973 20.858,18.562 2.685,2.52 4.934,4.591 4.998,4.604 0.07,0.01 -0.496,-0.698 -1.243,-1.578 z m -50.943,-52.688 c 9.139,-5.521 27.335,-14.848 43.147,-22.116 13.291,-6.11 29.694,-12.747 43.439,-17.577 3.055,-1.074 5.383,-1.961 5.172,-1.97 -0.532,-0.02 -12.035,3.307 -20.325,5.885 -10.133,3.152 -17.589,5.736 -27.612,9.574 -9.568,3.662 -13.245,5.354 -19.867,9.137 -6.937,3.963 -25.033,16.006 -27.348,18.199 -2.405,2.279 -2.065,2.165 3.394,-1.132 z" id="path68"/></g></svg>