<svg xmlns="http://www.w3.org/2000/svg" width="310px" height="310px" viewBox="0 0 619.7170248 619.7170248" version="1.1" id="svg5" xml:space="preserve" data-square-offset-x="91.6482924" data-square-offset-y="154.5060024"><defs id="defs2" style="fill: rgb(236, 198, 9);"/><g id="layer1" transform="" style="fill: rgb(236, 198, 9);"><path style="fill: rgb(236, 198, 9); stroke-width: 1;" d="m 327.94129239999967 464.8834023999994 c -11.418,-0.75 -20.288,-2.346 -29.346,-5.279 -6.415,-2.077 -10.886,-4.204 -15.292,-7.276 l -3.308,-2.306 -3.253,0.742 c -1.788,0.408 -5.161,1.3 -7.495,1.981 -7.35,2.147 -17.584,4.049 -27.757,5.158 -5.183,0.564 -19.406,0.567 -24.927,0 -8.669,-0.885 -18.793,-2.96 -26.341,-5.399 -8.371,-2.706 -16.119,-7.695 -18.16,-11.693 l -1.03,-2.018 -1.278,0.561 c -13,5.709 -27.682,8.696 -43,8.747 -10.341,0.04 -15.945,-0.95 -21.922,-3.852 -7.255,-3.522 -10.712,-7.995 -11.801,-15.266 -0.171,-1.136 -0.588,-3.099 -0.926,-4.364 -1.554,-5.785 0.849,-11.876 7.247,-18.38 3.798,-3.862 8.318,-7.186 15.027,-11.054 l 4.596,-2.652 -0.12,-3.846 c -0.107,-3.218 0,-4.14 0.593,-5.65 0.598,-1.51 0.655,-2.057 0.352,-3.358 -0.199,-0.855 -0.285,-3.304 -0.19,-5.439 l 0.172,-3.884 -2.908,-3.056 c -3.312,-3.48 -5.562,-7.52 -6.18,-11.098 -0.202,-1.167 -0.411,-5.623 -0.463,-9.9 l -0.09,-7.779 1.132,-2.308 c 0.624,-1.27 2.032,-3.301 3.127,-4.513 1.942,-2.145 1.983,-2.234 1.571,-3.349 -0.234,-0.629 -0.508,-3.16 -0.61,-5.625 -0.147,-3.549 -0.07,-4.833 0.384,-6.187 0.314,-0.94 0.808,-2.583 1.1,-3.652 2.118,-7.77 16.566,-15.12 36.079,-18.353 8.728,-1.447 21.006,-2.491 29.436,-2.504 h 3.27 v -2.923 c 0,-2.251 0.163,-3.226 0.711,-4.248 0.624,-1.164 0.661,-1.522 0.307,-2.928 -0.896,-3.561 0.243,-6.39 3.967,-9.837 4.267,-3.95 12.968,-7.866 23.232,-10.453 10.169,-2.563 23.535,-4.262 33.535,-4.262 2.401,0 4.367,-0.08 4.367,-0.191 0,-0.107 -0.317,-0.622 -0.704,-1.149 -1,-1.359 -1.529,-4.697 -1.307,-8.243 0.227,-3.609 0.679,-4.8 2.804,-7.388 1.384,-1.686 1.618,-2.211 1.754,-3.935 0.221,-2.801 1.743,-5.706 4.374,-8.347 3.261,-3.274 3.689,-4.161 3.677,-7.628 v -2.897 l -2.152,-1.232 c -3.6,-2.062 -6.302,-5.573 -6.312,-8.195 0,-0.379 -0.943,-1.054 -2.648,-1.896 -3.447,-1.704 -5.565,-3.604 -6.777,-6.082 -0.929,-1.899 -0.978,-2.255 -0.993,-7.147 0,-4.653 0.07,-5.289 0.768,-6.611 1.086,-2.028 4.312,-4.798 7.554,-6.4845 l 2.727,-1.419 0.12,-4.184 c 0.121,-3.935 0.19,-4.287 1.198,-5.918 3.405,-5.507 15.861,-10.232 32.519,-12.34 15.753,-1.991 35.4,-2.122 49.31,-0.33 11.384,1.468 21.247,4.878 24.246,8.382 1.574,1.839 1.928,3.18 1.931,7.316 v 3.36 l 1.667,1.236 c 2.603,1.934 3.628,3.666 4.081,6.9005 0.284,2.029 0.283,3.499 0,5.49 l -0.397,2.72 1.732,1.796 c 2.417,2.509 3.255,4.304 3.458,7.419 l 0.169,2.581 1.455,0.739 c 0.801,0.407 2.67,1.953 4.156,3.435 2.394,2.391 2.785,2.972 3.447,5.116 0.828,2.679 1.029,8.211 0.382,10.539 -0.571,2.052 -2.432,4.514 -5.116,6.76 l -2.475,2.073 -0.04,4.303 c -0.04,4.929 -0.414,6.264 -2.603,9.321 -1.292,1.804 -1.427,2.195 -1.427,4.146 0,1.185 -0.157,2.7 -0.348,3.366 -0.191,0.667 -0.287,1.272 -0.215,1.344 0.07,0.07 2.178,-0.264 4.679,-0.751 22.742,-4.414 53.608,-2.17 70.726,5.141 4.974,2.125 8.05,4.033 10.743,6.663 3.073,3.003 3.712,4.751 3.391,9.276 -0.185,2.613 -0.12,3.333 0.393,4.27 0.481,0.879 0.619,1.999 0.626,5.078 v 3.952 l 2.148,1.435 c 3.173,2.118 7.234,6.535 8.644,9.398 1.024,2.079 1.203,2.846 1.32,5.625 0.159,3.753 -0.481,5.91 -2.766,9.332 l -1.374,2.057 0.33,2.28 c 0.711,4.917 0.257,10.398 -1.091,13.189 -0.65,1.345 -0.648,1.389 0.05,2.777 0.997,1.953 1.472,5.227 1.078,7.403 -0.23,1.258 -0.207,1.804 0.08,1.885 0.219,0.07 3.262,0.539 6.763,1.057 17.5,2.593 31.421,7.992 37.773,14.651 2.643,2.771 3.534,4.76 3.648,8.133 l 0.09,2.619 1.89,1.484 c 2.553,2.004 4.931,4.784 6.152,7.195 l 1.011,1.995 v 7.247 7.248 l -1.211,2.233 c -0.666,1.228 -2.058,3.082 -3.094,4.118 -1.88,1.88 -1.883,1.885 -1.883,4.133 0,1.238 -0.148,2.766 -0.329,3.396 -0.278,0.973 -0.157,1.476 0.797,3.326 1.094,2.123 1.124,2.3 1.124,6.815 0,4.52 -0.03,4.694 -1.156,6.982 -2.007,4.078 -5.653,7.253 -11.51,10.028 -9.569,4.531 -20.834,6.684 -37.297,7.124 l -8.241,0.22 -0.559,1.095 c -0.897,1.754 -3.775,5.214 -5.658,6.802 -4.163,3.509 -8.674,5.774 -14.691,7.377 -10.101,2.687 -28.28,3.299 -47.928,1.611 -7.839,-0.673 -7.898,-0.673 -10.423,0.03 -3.442,0.954 -9.732,2.3 -13.747,2.94 -11.946,1.906 -31.522,2.75 -44.32,1.91 z m 19.435,-6.145 c 6.157,-0.72 12.589,-2.077 17.514,-3.696 7.263,-2.388 15.731,-6.619 18.808,-9.399 l 1.329,-1.201 -2.196,-1.776 c -1.208,-0.979 -2.387,-1.778 -2.621,-1.778 -0.232,0 -2.716,1.195 -5.52,2.654 -7.859,4.092 -15.646,6.44 -25.887,7.807 -5.583,0.745 -19.444,0.852 -24.751,0.19 -16.82,-2.097 -30.677,-9.231 -38.76,-19.956 -2.858,-3.794 -4.293,-6.683 -5.477,-11.026 l -0.481,-1.767 0.197,2.475 c 0.384,4.792 2.371,10.77 4.982,14.985 0.948,1.529 3.054,4.07 4.87,5.876 9.574,9.523 22.621,15.217 38.735,16.906 3.516,0.368 15.111,0.191 19.258,-0.294 z m 91.446,-4.258 c 8.398,-1.17 14.878,-4.128 19.468,-8.881 1.554,-1.609 3.963,-5.054 3.711,-5.305 -0.07,-0.07 -1.454,0.783 -3.089,1.883 -5.485,3.687 -10.099,5.38 -17.225,6.318 -5.049,0.664 -8.961,0.664 -14.634,0 -17.63,-2.062 -34.384,-10.265 -48.255,-23.626 -2.859,-2.753 -4.564,-4.823 -7.469,-9.067 -6.158,-8.998 -9.075,-15.295 -9.995,-21.578 -0.525,-3.591 -0.255,-10.48 0.505,-12.899 0.302,-0.963 0.496,-1.807 0.429,-1.873 -0.211,-0.212 -2.606,3.239 -3.542,5.103 -2.732,5.439 -2.793,13.277 -0.165,21.375 4.862,14.984 21.126,31.759 39.39,40.627 14.371,6.979 28.293,9.677 40.871,7.922 z m -70.226,-40.022 c -2.293,-3.087 -7.246,-12.287 -7.238,-13.444 0,-0.336 0.535,0.603 1.183,2.087 1.791,4.103 3.97,7.937 6.456,11.357 1.236,1.702 2.169,3.093 2.073,3.093 -0.09,0 -1.21,-1.391 -2.474,-3.093 z m -123.922,37.445 c 13.768,-2.061 23.958,-5.656 32.352,-11.416 2.977,-2.043 4.066,-2.956 4.066,-3.414 0,-0.188 -0.378,-1.197 -0.84,-2.241 -0.463,-1.045 -0.934,-2.177 -1.049,-2.518 -0.181,-0.53 -0.634,-0.342 -3.23,1.351 -8.645,5.636 -22.756,9.883 -37.023,11.146 -6.893,0.609 -21.721,0.225 -27.946,-0.722 -17.855,-2.721 -31.851,-9.973 -38.577,-19.989 -1.11,-1.656 -1.208,-1.146 -0.393,2.064 3.603,14.195 18.99,23.547 43.115,26.205 6.778,0.747 23.141,0.488 29.525,-0.466 z m 100.77,-2.537 c 8.01,-0.835 14.487,-2.32 20.678,-4.741 3.394,-1.326 10.022,-4.478 11.433,-5.437 0.345,-0.233 -1.05,-1.83 -5.34,-6.115 -8.912,-8.897 -13.839,-16.08 -16.576,-24.163 -2.704,-7.98 -3.081,-14.845 -1.168,-21.236 0.524,-1.75 0.974,-3.417 1.001,-3.705 0.07,-0.653 -3.082,-1.183 -10.559,-1.781 -9.846,-0.787 -21,0.479 -29.419,3.34 -8.152,2.77 -14.49,5.821 -18.801,9.05 -3.269,2.449 -4.395,3.627 -6.731,7.037 -2.089,3.051 -2.379,3.019 -0.511,-0.05 3.078,-5.066 8.827,-9.626 16.393,-13.003 15.24,-6.801 30.029,-8.559 48.85,-5.807 1.586,0.232 1.669,0.2 2.221,-0.868 0.561,-1.087 0.556,-1.116 -0.307,-1.443 -4.283,-1.63 -22.258,-2.207 -30.258,-0.973 -5.87,0.906 -12.095,2.519 -17.248,4.471 -6.084,2.305 -8.232,3.603 -18.004,10.878 -6.658,4.957 -7.582,6.113 -9.276,11.601 -5.395,17.482 11.384,36.63 36.57,41.729 2.354,0.478 5.626,1.008 7.269,1.179 4.182,0.437 15.765,0.462 19.783,0.04 z m -18.21,-4.986 c -1.555,-0.167 -3.545,-0.457 -4.419,-0.644 l -1.592,-0.341 1.592,0.155 c 0.874,0.08 5.569,0.258 10.43,0.383 7.062,0.181 9.932,0.106 14.275,-0.364 5.751,-0.624 7.624,-0.561 2.978,0.09 -8.02,1.144 -16.75,1.409 -23.264,0.709 z m -7.315,-1.259 c 0.255,-0.107 0.561,-0.09 0.678,0.03 0.12,0.12 -0.09,0.202 -0.464,0.186 -0.412,-0.01 -0.496,-0.09 -0.214,-0.213 z m -28.573,-37.795 c 0,-0.663 2.547,-4.236 4.358,-6.112 3.265,-3.387 10.607,-8.244 13.674,-9.049 0.486,-0.12 -0.782,0.658 -2.819,1.744 -6.008,3.206 -11.475,7.866 -14.118,12.033 -0.603,0.95 -1.095,1.573 -1.095,1.384 z m 151.862,40.661 c 6.801,-1.189 13.206,-4.373 17.72,-8.811 5.633,-5.537 6.897,-10.696 4.698,-19.166 -0.844,-3.249 -3.467,-8.912 -5.794,-12.509 -4.843,-7.486 -15.763,-17.98 -25.015,-24.037 -15.015,-9.83 -31.479,-14.859 -47.081,-14.379 -6.593,0.202 -9.061,0.77 -14.253,3.281 -9.973,4.821 -13.481,14.625 -9.956,27.82 0.898,3.364 4.166,9.907 7.211,14.436 4.919,7.319 15.089,16.598 24.151,22.036 10.042,6.026 19.719,9.69 29.494,11.169 5.612,0.85 14.448,0.925 18.825,0.16 z m -17.325,-4.05 c -12.072,-1.376 -23.945,-6.286 -34.828,-14.403 -4.863,-3.627 -12.781,-11.43 -15.975,-15.744 -7.143,-9.647 -9.874,-20.214 -7.328,-28.352 2.251,-7.203 10.134,-11.87 21.535,-12.75 5.888,-0.455 15.888,1.051 23.69,3.569 9.206,2.97 19.6,8.489 27.403,14.55 8.965,6.966 15.276,14.575 18.74,22.59 1.951,4.516 2.403,6.811 2.229,11.338 -0.143,3.729 -0.23,4.117 -1.503,6.693 -2.975,6.02 -9.208,10.083 -18.362,11.971 -3.365,0.695 -11.709,0.982 -15.601,0.538 z m 11.331,-0.729 c 6.823,-0.687 13.475,-3.142 17.587,-6.491 6.651,-5.419 7.792,-14.438 3.094,-24.469 -4.887,-10.434 -14.571,-19.95 -28.204,-27.716 -12.714,-7.243 -26.361,-11.287 -38.105,-11.295 -8.097,0 -17.115,3.386 -20.629,7.758 -6.359,7.914 -3.856,21.786 6.193,34.313 10.583,13.196 27.412,23.753 42.817,26.863 6.567,1.327 11.453,1.619 17.247,1.037 z m -301.62,1.279 c 11.036,-1.474 25.315,-5.748 32.559,-9.748 l 2.546,-1.406 -0.41,-1.607 c -0.225,-0.885 -0.531,-1.609 -0.68,-1.609 -0.149,0 -2.056,0.863 -4.237,1.921 -8.86,4.297 -20.939,7.789 -31.546,9.117 -5.281,0.663 -15.508,0.563 -19.801,-0.194 -6.804,-1.198 -12.308,-3.419 -15.556,-6.279 -0.876,-0.77 -1.592,-1.252 -1.592,-1.072 0,0.774 2.844,4.604 4.242,5.713 3.33,2.645 9.263,4.789 15.63,5.651 3.481,0.471 13.631,0.207 18.845,-0.487 z m 107.571,-0.864 c 12.935,-1.752 22.723,-4.996 31.509,-10.439 3.724,-2.31 3.474,-1.593 2.348,-6.737 -0.929,-4.242 -0.582,-12.94 0.692,-17.27 0.505,-1.72 1.159,-3.589 1.45,-4.155 0.293,-0.565 0.468,-1.027 0.39,-1.027 -0.08,0 -1.005,0.381 -2.059,0.847 -8.117,3.589 -17.925,5.517 -28.08,5.517 -10.974,0 -18.48,-1.362 -26.583,-4.822 -10.448,-4.464 -17.693,-10.225 -22.719,-18.068 l -1.64,-2.559 -4.568,2.263 c -6.769,3.355 -11.43,6.587 -15.182,10.529 -5.402,5.673 -7.421,10.097 -7.39,16.193 0.01,2.778 0.173,3.743 0.93,5.579 3.011,7.315 8.921,13.111 17.768,17.421 8.61,4.193 18.054,6.617 29.361,7.535 4.589,0.373 18.565,-0.106 23.773,-0.807 z m -5.121,-0.989 c 0.535,-0.08 1.41,-0.08 1.944,0 0.535,0.08 0.09,0.149 -0.973,0.149 -1.069,0 -1.506,-0.07 -0.971,-0.149 z m 4.685,-0.469 c 2.428,-0.378 4.448,-0.348 2.297,0.04 -0.875,0.155 -2.147,0.273 -2.827,0.262 -1.013,-0.01 -0.916,-0.07 0.53,-0.296 z m 4.331,-0.572 c 0.244,-0.09 0.641,-0.09 0.884,0 0.243,0.09 0.04,0.178 -0.443,0.178 -0.485,0 -0.684,-0.08 -0.441,-0.178 z m -26.961,-5.118 c -14.251,-1.233 -26.168,-5.446 -31.716,-11.212 l -1.873,-1.947 2.032,1.768 c 11.333,9.852 36.239,13.593 59.49,8.938 9.365,-1.875 19.294,-5.843 25.059,-10.013 3.005,-2.172 4.052,-2.489 1.568,-0.473 -3.668,2.978 -10.893,6.734 -16.373,8.513 -11.792,3.831 -26.01,5.478 -38.187,4.426 z m 268.191,2.708 c 17.217,-2.393 28.394,-7.701 31.077,-14.761 0.331,-0.866 0.155,-0.788 -1.832,0.814 -4.823,3.888 -13.204,7.297 -22.527,9.165 -6.766,1.355 -10.966,1.779 -19.333,1.946 -3.815,0.08 -7.048,0.267 -7.184,0.423 -0.137,0.157 -0.519,0.983 -0.849,1.837 l -0.601,1.551 8.591,-0.204 c 4.726,-0.107 10.421,-0.461 12.658,-0.771 z m -358.354,0.161 c 12.471,-1.158 27.589,-5.57 36.439,-10.633 l 2.658,-1.521 -0.237,-3.023 c -0.133,-1.664 -0.291,-3.087 -0.358,-3.163 -0.07,-0.08 -0.323,0.03 -0.572,0.23 -0.712,0.582 -9.34,4.127 -12.634,5.19 -9.491,3.062 -18.972,4.708 -29.008,5.036 -6.784,0.222 -11.194,-0.161 -15.661,-1.357 -3.064,-0.819 -3.455,-1.192 -0.703,-0.669 14.417,2.734 37.17,-1.125 54.109,-9.177 l 3.624,-1.723 v -3.469 c 0,-5.984 1.336,-10.438 4.473,-15.047 2.134,-3.134 2.124,-3.306 -0.292,-4.539 -2.807,-1.431 -5.785,-1.885 -12.319,-1.88 -4.819,0 -7.182,0.181 -10.683,0.798 -17.606,3.106 -36.968,12.932 -42.932,21.788 -0.655,0.972 -1.189,1.588 -1.189,1.37 0,-0.81 2.94,-4.766 4.71,-6.336 2.904,-2.578 9.684,-6.924 14.434,-9.254 13.464,-6.605 29.401,-10.15 40.2,-8.943 4.221,0.47 7.471,1.391 9.281,2.627 l 1.268,0.867 2.727,-2.453 2.728,-2.454 -1.521,-0.652 c -6.544,-2.804 -17.582,-3.728 -28.039,-2.348 -18.162,2.399 -41.401,13.713 -50.158,24.42 -3.115,3.807 -5.144,9.168 -4.603,12.159 0.816,4.502 5.834,8.455 13.038,10.273 1.557,0.393 5.137,0.933 7.957,1.199 2.819,0.267 4.41,0.505 3.534,0.527 -5.089,0.134 -13.111,-1.265 -17.678,-3.081 l -1.945,-0.774 0.884,0.751 c 1.232,1.048 4.351,2.56 7.072,3.429 5.974,1.908 13.568,2.559 21.391,1.832 z m 357.809,-6.178 c 9.212,-1.223 16.097,-3.151 22.659,-6.347 6.265,-3.051 9.342,-6.601 8.778,-10.129 l -0.238,-1.489 -0.737,1.027 c -3.715,5.18 -9.755,9.035 -18.814,12.01 -8.06,2.646 -15.201,3.939 -23.655,4.284 -5.008,0.205 -5.813,0.386 -5.829,1.316 0,0.474 12.869,-0.01 17.836,-0.672 z m -5.113,-5.167 c 7.369,-0.774 17.203,-3.321 21.203,-5.492 1.812,-0.982 1.479,-0.94 -2.96,0.368 -6.747,1.991 -14.317,3.202 -23.32,3.731 -3.473,0.204 -6.457,0.372 -6.629,0.372 -0.383,0 -0.42,1.188 -0.05,1.57 0.288,0.298 6.419,0.01 11.756,-0.549 z m 2.646,-4.741 c 6.197,-0.812 12.161,-2.146 17.438,-3.898 10.258,-3.403 14.21,-6.333 15.064,-11.165 l 0.226,-1.28 -5.822,2.966 c -6.934,3.536 -9.148,4.402 -15.282,5.977 -6.403,1.642 -13.337,2.591 -20.962,2.867 l -6.447,0.233 0.227,1.27 c 0.12,0.697 0.389,1.889 0.587,2.648 l 0.361,1.381 5.219,-0.226 c 2.872,-0.12 7.098,-0.472 9.391,-0.773 z m -1.408,-7.459 c 2.723,-0.291 6.391,-0.842 8.154,-1.223 3.627,-0.782 10.259,-2.89 8.172,-2.596 -11.065,1.554 -18.256,2.051 -26.314,1.818 -3.55,-0.107 -6.454,-0.141 -6.454,-0.09 0,0.286 1.041,2.524 1.287,2.769 0.377,0.374 8.888,-0.01 15.155,-0.68 z m 7.756,-5.968 c 5.349,-0.634 11.8,-1.895 16.287,-3.186 8.126,-2.338 14.447,-6.653 16.06,-10.964 1.281,-3.426 1.03,-3.703 -1.357,-1.494 -4.824,4.466 -15.637,8.101 -29.73,9.992 -8.093,1.087 -24.524,1.045 -30.13,-0.08 l -1.059,-0.211 1.611,2.261 c 3.012,4.228 2.569,3.92 6.086,4.231 4.474,0.394 16.822,0.09 22.232,-0.553 z m -237.123,-4.238 c 0.05,-0.05 -0.121,-1.396 -0.392,-2.98 -0.621,-3.6 -0.257,-3.406 0.47,0.25 l 0.54,2.707 1.583,-0.107 c 1.657,-0.12 8.107,-1.331 8.351,-1.574 0.08,-0.08 -0.107,-1.216 -0.415,-2.53 -0.304,-1.313 -0.49,-2.571 -0.414,-2.793 0.08,-0.221 0.434,0.846 0.796,2.372 l 0.658,2.775 1.224,-0.199 c 1.697,-0.276 7.116,-2.025 7.116,-2.299 0,-0.12 -0.39,-1.49 -0.868,-3.037 -0.477,-1.548 -0.805,-2.879 -0.727,-2.955 0.188,-0.19 1.19,2.232 1.691,4.089 0.222,0.827 0.59,1.504 0.817,1.504 1.008,0 6.956,-2.61 8.352,-3.666 0.564,-0.425 0.547,-0.659 -0.266,-3.608 -1.168,-4.246 -0.867,-4.684 0.411,-0.599 0.561,1.796 1.135,3.267 1.274,3.27 0.196,0 6.04,-3.615 6.581,-4.076 0.09,-0.08 -0.711,-3.188 -1.593,-6.155 -0.394,-1.324 0.981,1.399 1.507,2.988 0.324,0.973 0.696,1.89 0.83,2.037 0.223,0.246 5.708,-3.52 6.137,-4.213 0.153,-0.25 -0.547,-2.743 -1.675,-5.956 l -0.248,-0.707 0.451,0.707 c 0.25,0.389 0.798,1.655 1.22,2.813 0.423,1.159 0.913,2.156 1.09,2.215 0.177,0.05 0.923,-0.507 1.657,-1.259 l 1.333,-1.366 -0.745,-2.923 c -0.411,-1.606 -0.663,-3.004 -0.562,-3.105 0.249,-0.249 0.916,1.534 1.212,3.244 0.134,0.762 0.428,1.449 0.658,1.525 0.49,0.163 2.911,-3.007 2.924,-3.829 0,-0.31 -0.285,-1.424 -0.644,-2.474 -0.358,-1.052 -0.767,-2.39 -0.909,-2.974 -0.472,-1.948 0.489,-0.425 1.356,2.15 l 0.818,2.431 0.881,-1.76 c 1.324,-2.649 1.392,-3.353 0.607,-6.35 -0.979,-3.737 -0.667,-4.216 0.381,-0.59 l 0.843,2.919 0.675,-1.315 c 1.066,-2.078 1.185,-4.985 0.287,-7.015 -1.093,-2.469 -0.862,-2.505 0.289,-0.04 l 0.979,2.093 0.249,-2.85 c 0.243,-2.777 -0.579,-12.731 -1.186,-14.37 -0.153,-0.416 -0.36,1.03 -0.502,3.512 -0.39,6.804 -1.401,10.449 -4.5,16.239 -4.642,8.677 -14.406,17.449 -25.77,23.153 -10.704,5.372 -19.957,7.708 -31.856,8.043 -12.133,0.344 -21.45,-1.537 -30.461,-6.146 -8.238,-4.213 -14.521,-9.724 -18.506,-16.232 -1.417,-2.312 -1.339,-1.507 0.173,1.802 1.691,3.701 5.606,9.255 8.715,12.363 3.302,3.302 8.565,6.953 13.051,9.055 3.164,1.484 3.899,1.661 3.596,0.868 -0.44,-1.144 -0.978,-3.463 -0.838,-3.603 0.08,-0.08 0.418,0.804 0.747,1.971 0.365,1.304 0.895,2.333 1.375,2.671 0.716,0.505 4.669,1.866 7.099,2.444 l 1.014,0.242 -0.251,-2.018 c -0.139,-1.109 -0.343,-2.27 -0.453,-2.58 -0.12,-0.325 -0.07,-0.441 0.12,-0.277 0.178,0.159 0.564,1.353 0.859,2.653 l 0.538,2.364 1.758,0.436 c 0.968,0.239 3.172,0.542 4.897,0.672 2.969,0.224 3.126,0.202 2.949,-0.436 -0.107,-0.37 -0.286,-1.308 -0.406,-2.086 -0.12,-0.778 -0.311,-1.872 -0.422,-2.431 -0.134,-0.644 -0.07,-0.935 0.156,-0.795 0.198,0.12 0.559,1.375 0.802,2.785 0.243,1.409 0.611,2.78 0.816,3.046 0.301,0.387 1.279,0.433 4.982,0.23 2.534,-0.139 4.655,-0.297 4.714,-0.353 z m 237.852,-3.853 c 8.93,-1.345 17.432,-3.696 22.721,-6.283 9.717,-4.751 11.675,-10.699 5.63,-17.114 l -1.983,-2.105 -0.01,2.165 c -0.03,5.576 -3.47,9.625 -11.503,13.548 -11.462,5.6 -26.2,8.067 -42.478,7.11 -3.625,-0.214 -6.678,-0.303 -6.782,-0.199 -0.107,0.107 0.255,0.655 0.799,1.223 1.089,1.137 2.811,1.542 9.037,2.128 4.903,0.461 20.343,0.165 24.573,-0.473 z m 24.747,-13.656 c 0.17,-0.293 0.66,-1.009 1.091,-1.592 0.431,-0.584 1.035,-1.856 1.343,-2.829 0.533,-1.688 0.549,-1.704 0.363,-0.353 -0.208,1.524 -1.484,3.988 -2.487,4.802 -0.54,0.438 -0.578,0.434 -0.31,-0.03 z m -260.054,6.912 c 23.698,-4.011 43.951,-19.569 48.581,-37.321 0.823,-3.154 1.124,-9.504 0.594,-12.548 -1.742,-10.002 -10.139,-19.922 -21.772,-25.72 -7.158,-3.567 -18.871,-5.932 -29.344,-5.926 -11.681,0.01 -21.585,2.344 -32.179,7.594 -6.04,2.992 -9.545,5.491 -14.204,10.124 -5.522,5.491 -9.459,11.712 -11.273,17.814 -0.753,2.525 -0.984,4.173 -1.127,7.987 -0.374,10.074 2.204,16.408 9.792,24.061 4.961,5.004 9.982,8.248 16.93,10.943 4.298,1.665 8.614,2.663 15.793,3.652 2.434,0.335 15.021,-0.12 18.209,-0.66 z m 229.991,-1.043 c 17.292,-2.829 27.149,-8.315 28.341,-15.77 l 0.236,-1.479 -1.907,1.452 c -5.483,4.176 -14.732,7.525 -24.888,9.014 -12.499,1.831 -30.214,1.618 -41.906,-0.503 -1.204,-0.217 -2.245,-0.339 -2.315,-0.271 -0.07,0.07 2.02,1.844 4.642,3.945 l 4.766,3.819 3.793,0.48 c 2.647,0.334 6.786,0.444 13.694,0.358 8.625,-0.107 10.627,-0.239 15.544,-1.045 z m -362.041,-1.785 c 0.674,-0.282 1.219,-0.64 1.211,-0.797 0,-0.155 -0.802,-1.157 -1.764,-2.227 l -1.749,-1.945 v 2.741 c 0,3.048 0.107,3.15 2.306,2.228 z m 11.178,-3.823 3.411,-1.095 -2.749,-1.109 c -5.25,-2.117 -10.447,-5.688 -12.028,-8.266 -0.487,-0.792 -1.027,-1.445 -1.2,-1.451 -0.623,-0.01 0.12,4.71 1.027,6.574 1.49,3.045 5.955,7.064 7.393,6.652 0.404,-0.12 2.271,-0.703 4.146,-1.305 z m 52.455,-2.109 c 5.977,-3.074 6.158,-3.217 3.712,-2.943 -6.127,0.686 -14.219,1.25 -18.386,1.284 l -4.773,0.04 3.005,0.633 c 3.519,0.741 6.899,1.846 9.158,2.994 0.886,0.451 1.853,0.715 2.149,0.588 0.296,-0.12 2.607,-1.295 5.135,-2.595 z m 287.366,-0.635 c 7.259,-0.402 12.638,-1.088 18.137,-2.309 6.678,-1.484 12.316,-3.595 14.663,-5.494 0.753,-0.608 0.623,-0.587 -0.884,0.146 -5.505,2.675 -15.273,5.122 -24.22,6.067 -12.046,1.271 -28.813,0.629 -37.765,-1.446 -3.61,-0.837 -10.289,-2.936 -11.811,-3.713 -0.774,-0.395 -1.473,-0.653 -1.552,-0.574 -0.08,0.08 1.727,1.038 4.012,2.131 6.163,2.948 13.809,4.555 24.664,5.181 6.769,0.391 7.883,0.392 14.756,0.01 z m -316.566,-1.052 c 2.22,0 3.953,-0.08 3.85,-0.188 -0.107,-0.107 -1.601,-0.344 -3.33,-0.536 -4.486,-0.496 -14.023,-2.312 -19.482,-3.711 -3.925,-1.005 -6.56,-1.89 -12.654,-4.246 -0.618,-0.239 -0.596,-0.148 0.177,0.718 2.269,2.543 8.748,5.725 14.673,7.207 4.076,1.02 4.541,1.066 8.84,0.905 2.14,-0.08 5.706,-0.147 7.926,-0.149 z m 325.676,-1.214 c 12.617,-1.654 24.251,-5.361 27.456,-8.748 3.648,-3.854 3.401,-7.738 -0.751,-11.791 -12.495,-12.2 -52.656,-18.654 -76.93,-12.364 -14.917,3.865 -23.143,11.12 -19.036,16.789 2.296,3.17 4.204,4.638 8.976,6.906 14.191,6.746 21.263,8.809 33.768,9.854 4.138,0.345 22.332,-0.09 26.517,-0.646 z m -28.285,-4.481 c -13.909,-1.215 -26.382,-5.372 -31.766,-10.587 -3.732,-3.613 -3.855,-6.199 -0.444,-9.282 3.724,-3.364 13.403,-6.51 23.724,-7.71 5.312,-0.619 17.519,-0.52 23.689,0.191 20.415,2.352 35.663,9.595 34.376,16.328 -0.309,1.618 -3.765,4.792 -6.805,6.25 -4.863,2.333 -12.117,4.009 -20.853,4.82 -4.642,0.431 -16.935,0.425 -21.921,-0.01 z m 27.402,-1.175 c 11.102,-1.813 19.163,-5.347 21.041,-9.225 0.665,-1.375 0.708,-1.737 0.342,-2.848 -1.862,-5.642 -15.148,-11.165 -32.403,-13.473 -5.741,-0.767 -20.934,-0.867 -25.929,-0.17 -9.39,1.31 -17.922,4.062 -21.829,7.038 -3.776,2.878 -3.266,6.429 1.432,9.966 5.508,4.148 15.964,7.646 26.408,8.835 1.846,0.21 3.836,0.446 4.419,0.525 0.584,0.08 5.993,0.09 12.022,0.04 8.023,-0.08 11.908,-0.262 14.497,-0.684 z m -174.138,4.497 c 2.988,-0.805 3.054,-0.941 0.875,-1.843 -1.085,-0.45 -2.016,-0.759 -2.071,-0.688 -0.05,0.07 -0.521,0.902 -1.038,1.845 -0.767,1.401 -0.826,1.669 -0.325,1.462 0.338,-0.139 1.489,-0.489 2.559,-0.776 z m -128.362,-1.87 c 5.992,-0.306 13.449,-0.987 13.749,-1.257 0.07,-0.07 -0.165,-1.334 -0.516,-2.828 l -0.64,-2.715 -1.783,0.212 c -0.979,0.12 -5.007,0.401 -8.95,0.631 -16.918,0.989 -38.679,-1.677 -50.498,-6.188 -6.779,-2.587 -11.443,-5.525 -16.175,-10.187 l -2.805,-2.765 0.211,1.791 c 0.634,5.352 5.198,10.537 12.429,14.117 9.315,4.612 26.727,8.454 41.554,9.168 3.014,0.146 5.799,0.285 6.188,0.309 0.389,0.03 3.645,-0.107 7.236,-0.288 z m 144.626,-1.897 c 3.915,-0.419 4.001,-0.445 2.298,-0.717 -3.374,-0.539 -9.652,-2.274 -12.817,-3.54 -1.749,-0.7 -3.262,-1.273 -3.361,-1.273 -0.175,0 -0.97,2.833 -0.97,3.46 0,0.391 1.344,1.039 3.889,1.875 2.288,0.751 5.266,0.804 10.961,0.195 z m 37.148,-2.84 c 3.076,-2.589 5.395,-4.876 4.752,-4.689 -0.389,0.12 -3.492,0.467 -6.896,0.788 -13.917,1.311 -30.314,-0.08 -42.551,-3.597 -2.341,-0.674 -4.466,-1.146 -4.72,-1.048 -0.258,0.09 -0.462,0.722 -0.462,1.407 0,1.165 0.12,1.288 2.278,2.319 2.801,1.336 8.669,2.89 15.224,4.033 4.279,0.746 6.766,1.049 14.497,1.769 0.778,0.07 4.846,0.107 9.038,0.08 l 7.622,-0.04 z m 53.67,-5.784 c -0.691,-0.728 -1.537,-1.722 -1.879,-2.209 l -0.624,-0.885 0.212,0.885 c 0.12,0.487 0.214,1.077 0.217,1.312 0,0.449 2.39,2.224 2.988,2.224 0.188,0 -0.223,-0.597 -0.914,-1.327 z m -226.665,0.74 c 2.424,-0.188 2.913,-0.326 2.824,-0.793 -0.09,-0.5 -0.805,-0.544 -6.116,-0.388 -9.811,0.289 -21.26,0.154 -25.983,-0.306 -12.643,-1.232 -26.877,-4.438 -34.728,-7.823 -1.784,-0.768 -3.29,-1.351 -3.347,-1.292 -0.242,0.24 5.253,3.083 8.198,4.239 7.547,2.964 20.742,5.503 33.059,6.362 3.193,0.222 23.241,0.223 26.093,0 z m 168.907,-1.905 c 14.171,-1.215 23.425,-3.607 32.236,-8.334 8.202,-4.399 13.553,-9.759 13.553,-13.577 0,-2.797 -3.237,-7.036 -7.097,-9.296 -1.445,-0.845 -9.92,-4.252 -10.055,-4.042 -1.504,2.332 -5.378,6.935 -8.107,9.631 -8.091,7.993 -17.641,13.065 -28.451,15.109 -3.342,0.632 -5.344,0.772 -10.819,0.761 -10.68,-0.03 -15.534,-1.119 -26.548,-6.008 -0.469,-0.207 0.264,5.379 0.767,5.841 1.001,0.92 8.971,2.892 15.174,3.756 5.661,0.788 20.659,1.085 27.682,0.547 9.108,-0.697 18.73,-2.707 24.843,-5.191 10.248,-4.164 15.659,-9.105 14.479,-13.22 -0.262,-0.914 -0.244,-1.097 0.08,-0.779 0.229,0.229 0.415,1.21 0.415,2.18 0,2.177 -1.184,3.986 -4.242,6.48 -2.528,2.062 -10.051,5.821 -14.633,7.314 -3.856,1.256 -11.985,2.965 -17.148,3.608 -4.886,0.607 -24.691,0.604 -29.525,0 -5.49,-0.691 -10.589,-1.732 -14.066,-2.869 -1.695,-0.556 -3.137,-0.96 -3.202,-0.898 -0.07,0.07 -0.205,1.06 -0.31,2.218 l -0.191,2.106 1.725,0.559 c 10.816,3.505 29.675,5.288 43.446,4.108 z m 36.043,-26.59 -1.038,-1.149 1.149,1.038 c 1.07,0.968 1.311,1.259 1.038,1.259 -0.07,0 -0.578,-0.516 -1.149,-1.148 z m 13.104,25.546 c -0.12,-0.195 -0.367,-0.354 -0.55,-0.354 -0.183,0 -0.333,0.159 -0.333,0.354 0,0.194 0.247,0.353 0.551,0.353 0.303,0 0.453,-0.159 0.332,-0.353 z m -8.719,-2.252 c 0.454,-0.252 1.745,-1.365 2.867,-2.473 3.209,-3.171 4.642,-6.4 4.104,-9.257 l -0.233,-1.254 -2.454,2.628 c -3,3.212 -7.52,6.358 -12.8,8.91 l -3.979,1.923 5.834,-0.01 c 4.104,0 6.079,-0.146 6.661,-0.468 z m -208.809,-0.784 1.338,-0.227 -0.107,-2.962 -0.107,-2.962 h -5.48 c -10.508,-0.01 -23.646,-1.079 -30.912,-2.509 -11.287,-2.221 -20.199,-6.747 -22.453,-11.403 -0.654,-1.352 -0.974,-1.6 -3,-2.315 -2.769,-0.978 -6.963,-3.332 -9.428,-5.296 -1.008,-0.803 -1.952,-1.459 -2.096,-1.459 -0.568,0 -3.257,3.296 -3.974,4.873 -1.112,2.444 -1.092,6.746 0.04,8.888 1.42,2.682 3.977,4.816 8.303,6.931 8.956,4.378 21.578,7.441 35.586,8.635 3.987,0.339 30.058,0.188 32.276,-0.187 z m -66.043,-9.752 c -2.163,-1.355 -4.316,-3.165 -5.058,-4.255 -0.305,-0.447 0.242,-0.08 1.215,0.82 0.973,0.898 2.673,2.233 3.778,2.966 1.73,1.15 2.29,1.609 1.921,1.581 -0.05,0 -0.883,-0.503 -1.856,-1.112 z m 286.299,5.78 c 0.579,-0.84 0.998,-1.578 0.931,-1.638 -0.07,-0.07 -0.617,-0.217 -1.221,-0.346 l -1.097,-0.235 -0.219,1.846 c -0.121,1.016 -0.383,2.009 -0.582,2.209 -0.199,0.2 -0.363,0.515 -0.363,0.701 0,0.528 1.39,-0.854 2.551,-2.537 z m 5.496,-6.267 c 0.429,-0.301 2.096,-1.252 3.703,-2.116 l 2.924,-1.569 -3.536,-0.01 c -1.944,0 -5.052,-0.107 -6.905,-0.231 l -3.37,-0.223 0.04,1.197 c 0.03,0.659 0.07,1.715 0.09,2.347 l 0.07,1.149 h 3.104 c 2.225,0 3.324,-0.155 3.883,-0.547 z m -223.894,-1.488 c 0.12,-0.728 0.457,-2.178 0.744,-3.219 0.288,-1.042 0.46,-1.956 0.384,-2.033 -0.08,-0.08 -1.716,0.09 -3.646,0.377 -18.05,2.657 -36.425,1.763 -50.179,-2.443 -2.737,-0.836 -2.8,-0.84 -1.944,-0.12 0.486,0.409 2.023,1.274 3.415,1.923 9.649,4.496 23.122,6.536 44.744,6.776 l 6.26,0.07 z m 152.911,0.967 c 6.766,-0.702 11.801,-2.067 17.534,-4.754 12.027,-5.637 20.735,-15.315 24.941,-27.717 3.58,-10.559 2.54,-23.113 -2.853,-34.444 -6.059,-12.73 -18.394,-22.891 -32.499,-26.769 -6.67,-1.834 -9.899,-2.267 -16.847,-2.258 -8.919,0.01 -14.308,1.189 -21.569,4.719 -7.292,3.544 -13.517,8.492 -17.999,14.308 -2.911,3.775 -4.124,5.75 -5.994,9.757 -4.061,8.706 -5.436,17.522 -4.153,26.63 l 0.492,3.487 1.593,0.933 c 4.029,2.359 7.863,5.045 9.913,6.944 3.403,3.153 7.558,8.927 9.94,13.814 1.7,3.487 2.435,4.592 4.022,6.042 4.581,4.188 16.103,8.539 24.621,9.299 4.394,0.392 5.145,0.393 8.858,0.01 z m -9.017,-6.575 c -13.302,-1.358 -24.078,-6.852 -32.26,-16.446 -6.343,-7.439 -8.141,-10.477 -9.845,-16.643 -1.238,-4.478 -1.555,-11.801 -0.705,-16.306 1.885,-9.992 7.863,-19.261 16.634,-25.793 5.08,-3.784 11.631,-6.444 18.576,-7.544 4.866,-0.771 13.936,-0.521 18.591,0.512 14.291,3.171 25.722,11.896 31.8,24.273 5.734,11.674 5.709,23.396 -0.08,35.004 -5.628,11.294 -17.171,19.723 -30.463,22.245 -2.905,0.551 -9.83,0.945 -12.253,0.698 z m 8.486,-0.868 c 18.649,-2.201 32.832,-14.296 36.941,-31.5 2.849,-11.93 -0.707,-24.678 -9.767,-35.012 -5.264,-6.004 -13.496,-11.133 -21.394,-13.333 -9.077,-2.527 -20.373,-2.452 -28.577,0.191 -12.812,4.128 -23.19,14.825 -27.083,27.914 -1.335,4.489 -1.597,12.243 -0.578,17.155 0.814,3.929 2.578,8.479 4.375,11.29 1.622,2.535 5.991,7.704 8.839,10.457 9.899,9.568 23.939,14.409 37.244,12.838 z m 81.426,-0.33 c 15.968,-0.807 26.579,-3.625 33.596,-8.924 3.043,-2.299 4.815,-4.382 6.164,-7.247 1.382,-2.935 1.093,-3.48 -0.54,-1.021 -3.134,4.72 -11.314,9.008 -21.998,11.531 -6.944,1.64 -7.891,1.548 -1.414,-0.137 6.89,-1.794 9.702,-2.804 14.065,-5.057 5.004,-2.582 8.435,-5.597 9.67,-8.491 0.519,-1.218 0.675,-5.405 0.201,-5.405 -0.157,0 -0.833,0.576 -1.502,1.279 -4.225,4.432 -11.54,8.748 -18.486,10.909 -9.943,3.094 -24.838,4.786 -36.113,4.104 -3.106,-0.188 -5.683,-0.306 -5.728,-0.262 -0.04,0.04 0.488,0.793 1.184,1.661 1.265,1.578 3.295,5.435 3.296,6.258 0,0.544 0.958,0.767 3.889,0.909 5.003,0.241 7.156,0.225 13.716,-0.107 z m 36.09,-0.927 c 0.907,-0.182 1.264,-0.566 2.049,-2.209 0.522,-1.095 1.023,-2.853 1.114,-3.909 l 0.166,-1.919 -1.728,1.434 c -2.629,2.179 -5.696,4.159 -8.617,5.559 l -2.638,1.264 h 4.277 c 2.352,0 4.772,-0.09 5.377,-0.22 z m -277.334,-0.997 c 6.549,-0.785 10.188,-1.541 10.608,-2.202 0.193,-0.309 1.355,-2.067 2.579,-3.907 2.165,-3.252 2.2,-3.339 1.237,-3.145 -14.32,2.89 -34.168,3.804 -47.485,2.187 -15.22,-1.848 -26.782,-5.694 -31.896,-10.609 l -1.454,-1.398 0.234,1.712 c 0.498,3.632 0.918,4.537 3.063,6.596 5.857,5.622 20.129,9.909 37.494,11.263 5.665,0.441 20.127,0.16 25.62,-0.497 z m 281.049,0.07 c 0.12,-0.439 0.209,-1.512 0.202,-2.387 v -1.592 l -0.676,1.768 c -0.373,0.973 -0.843,2.046 -1.048,2.387 -0.311,0.52 -0.235,0.619 0.476,0.619 0.578,0 0.913,-0.251 1.058,-0.795 z m -286.353,-9.471 c 6.355,-0.536 12.141,-1.302 17.856,-2.364 l 5.126,-0.953 2.91,-2.646 c 1.599,-1.455 2.854,-2.699 2.789,-2.765 -0.07,-0.07 -0.544,0.04 -1.063,0.239 -1.947,0.741 -15.157,3.23 -20.053,3.778 -6.258,0.703 -22.566,0.814 -27.719,0.191 -9.325,-1.129 -14.448,-2.4 -19.483,-4.837 -2.964,-1.434 -5.444,-3.459 -5.444,-4.445 0,-0.195 0.504,0.22 1.12,0.921 2.843,3.24 12.173,6.31 23.276,7.661 4.699,0.572 22.526,0.568 27.58,0 10.587,-1.203 22.126,-3.877 25.455,-5.899 1.191,-0.723 2.116,-1.364 2.054,-1.426 -0.07,-0.07 -2.464,-0.757 -5.34,-1.548 -6.442,-1.772 -9.838,-3.164 -13.184,-5.402 -4.481,-2.998 -6.204,-5.864 -6.435,-10.718 -0.146,-3.044 -0.212,-3.259 -1.509,-4.958 -1.351,-1.768 -1.363,-1.774 -3.585,-1.875 -3.671,-0.163 -17.011,0.633 -22.97,1.37 -24.432,3.028 -41.666,11.139 -41.666,19.609 0,7.439 16.473,14.233 38.893,16.041 5.354,0.432 16.459,0.449 21.392,0.03 z m -37.051,-24.424 c 0.687,-0.686 6.997,-3.204 10.147,-4.049 4.669,-1.251 4.932,-1.023 0.386,0.333 -2.139,0.637 -5.463,1.813 -7.386,2.611 -1.922,0.799 -3.338,1.297 -3.147,1.105 z m 14.886,-5.153 c 0.255,-0.106 0.56,-0.09 0.677,0.03 0.12,0.12 -0.09,0.201 -0.463,0.186 -0.412,-0.01 -0.496,-0.09 -0.214,-0.214 z m 274.091,28.71 c 7.117,-0.98 16.457,-3.593 20.84,-5.828 2.026,-1.035 1.643,-1.227 -0.781,-0.392 -5.93,2.039 -13.571,3.782 -21.12,4.815 -6.471,0.885 -19.46,1.061 -27.362,0.372 -3.674,-0.321 -6.748,-0.515 -6.832,-0.431 -0.383,0.384 6.953,1.655 12.272,2.128 3.6,0.319 19.089,-0.121 22.983,-0.664 z m 1.018,-6.7 c 9.054,-1.293 16.813,-3.323 23.447,-6.135 4.808,-2.038 7.553,-3.776 10.231,-6.481 2.774,-2.803 3.974,-5.352 3.779,-8.034 -0.2,-2.777 -1.629,-5.585 -4.288,-8.428 -1.885,-2.015 -4.759,-4.357 -5.346,-4.357 -0.107,0 -0.202,0.888 -0.202,1.976 0,1.741 0.145,2.146 1.218,3.398 2.643,3.089 3.309,6.169 1.943,8.99 -0.956,1.974 -4.621,5.372 -7.794,7.224 -2.526,1.476 -9.104,4.39 -9.352,4.145 -0.07,-0.07 0.937,-0.588 2.243,-1.148 7.418,-3.182 12.908,-7.358 14.415,-10.969 1.045,-2.502 0.283,-5.692 -1.835,-7.678 l -1.018,-0.955 -1.767,2.353 c -6.008,8.009 -20.314,13.504 -39.881,15.319 -4.644,0.43 -22.631,0.27 -24.203,-0.217 -0.635,-0.196 -0.795,-0.107 -0.795,0.436 0,0.376 -0.552,2.654 -1.225,5.064 -0.674,2.409 -1.182,4.423 -1.128,4.476 0.183,0.183 7.483,1.179 11.015,1.502 5.633,0.515 25.79,0.198 30.543,-0.481 z m -208.878,-10.033 4.466,-1.693 -4.114,-0.433 c -11.58,-1.218 -22.159,-4.684 -26.515,-8.689 -1.624,-1.492 -4.959,-3.551 -5.263,-3.248 -0.306,0.308 0.648,3.884 1.334,4.992 2.82,4.563 10.551,8.192 21.737,10.2 3.862,0.694 3.375,0.761 8.355,-1.129 z m 54.847,-5.073 c 2.256,-0.502 3.448,-0.931 3.448,-1.24 0,-0.611 0.08,-0.619 -4.192,0.417 -6.467,1.566 -5.816,2.284 0.744,0.823 z m 146.212,-0.807 c 7.159,-1.073 14.271,-2.824 18.656,-4.592 5.348,-2.157 10.911,-5.853 12.012,-7.983 0.686,-1.326 0.472,-1.329 -1.17,-0.01 -1.79,1.43 -9.459,5.073 -13.328,6.331 -10.667,3.466 -28.727,4.982 -44.286,3.713 l -2.563,-0.208 v 1.608 1.606 l 1.856,0.203 c 1.021,0.107 2.414,0.267 3.094,0.346 0.681,0.08 5.375,0.09 10.43,0.03 7.654,-0.09 10.217,-0.271 15.299,-1.033 z m -183.621,0.107 c 2.733,-0.222 5.208,-0.551 5.5,-0.731 0.362,-0.223 0.133,-0.274 -0.746,-0.158 -2.289,0.305 -21.232,-0.421 -26.127,-0.999 -7.078,-0.838 -11.513,-1.543 -14.477,-2.302 -1.455,-0.373 -2.705,-0.618 -2.778,-0.546 -0.07,0.07 1.592,0.687 3.7,1.364 9.909,3.186 22.379,4.389 34.928,3.372 z m 30.25,-2.05 c 8.72,-2.076 10.054,-2.537 10.196,-3.528 0.141,-0.985 0.454,-1.021 -7.19,0.804 -5.716,1.363 -14.12,2.864 -18.498,3.3 -2.614,0.262 -2.657,0.28 -1.127,0.49 0.876,0.121 3.661,0.242 6.188,0.27 4.22,0.04 5.077,-0.07 10.431,-1.336 z m -16.971,-3.711 c 9.078,-1.091 21.193,-3.604 25.988,-5.394 1.518,-0.566 1.783,-0.807 1.879,-1.712 0.09,-0.923 0.839,-4.188 1.336,-5.886 0.144,-0.492 -0.397,-0.389 -3.203,0.614 -10.895,3.895 -22.929,5.743 -39.47,6.063 -23.107,0.447 -41.054,-2.765 -49.63,-8.881 -1.269,-0.906 -1.829,-1.131 -2.028,-0.818 -0.472,0.743 -0.314,4.83 0.227,5.877 1.708,3.303 7.879,6.021 18.553,8.174 4.676,0.942 13.73,2.231 18.237,2.596 4.315,0.35 23.532,-0.08 28.111,-0.633 z m 168.689,-1.786 c 15.713,-1.51 25.487,-4.9 31.665,-10.979 2.062,-2.03 2.631,-2.839 3.094,-4.395 0.311,-1.051 0.566,-2.417 0.566,-3.037 v -1.128 l -2.457,2.417 c -1.905,1.869 -3.201,2.766 -5.747,3.975 -7.398,3.515 -18.115,6.045 -29.414,6.944 -5.319,0.424 -19.833,0.44 -24.434,0.03 -1.751,-0.158 -3.24,-0.234 -3.311,-0.171 -0.07,0.07 0.07,1.467 0.3,3.121 l 0.427,3.009 1.469,0.195 c 5.007,0.661 21.05,0.675 27.842,0.03 z m -172.562,-7.624 c 11.416,-0.887 23.171,-3.251 30.925,-6.219 l 3.402,-1.302 1.207,-2.397 c 1.868,-3.71 4.518,-8.065 6.311,-10.37 0.896,-1.152 1.628,-2.223 1.628,-2.378 0,-0.541 -5.046,-3.822 -7.024,-4.567 -4.109,-1.548 -21.851,-4.94 -29.395,-5.62 -10.284,-0.926 -25.119,-0.04 -36.056,2.149 -19.129,3.831 -32.813,11.406 -31.665,17.527 0.317,1.687 3.473,4.851 6.552,6.566 5.561,3.098 16.433,5.498 29.877,6.593 5.263,0.429 18.819,0.439 24.238,0.01 z m -20.878,-3.752 c -0.682,-0.07 -3.067,-0.29 -5.304,-0.497 -10.393,-0.965 -18.636,-3.702 -21.935,-7.282 -1.198,-1.299 -1.401,-1.751 -1.401,-3.102 0,-1.42 0.175,-1.757 1.711,-3.294 6.114,-6.114 23.998,-10.715 43.901,-11.295 18.077,-0.526 34.871,2.622 40.339,7.563 1.959,1.77 2.225,2.36 1.598,3.55 -2.866,5.454 -15.885,10.947 -31.153,13.142 -8.525,1.227 -21.664,1.802 -27.756,1.215 z m 24.22,-1.322 c 15.522,-1.982 28.196,-6.47 33.008,-11.69 0.806,-0.876 1.466,-1.858 1.466,-2.184 0,-0.979 -2.667,-3.209 -5.395,-4.506 -4.112,-1.959 -8.54,-3.066 -17.411,-4.351 -6.165,-0.894 -24.194,-0.897 -31.115,0 -11.058,1.426 -19.05,3.496 -25.457,6.596 -7.715,3.731 -9.296,7.019 -4.953,10.297 4.119,3.109 11.761,5.278 22.277,6.321 4.746,0.47 22.566,0.161 27.58,-0.479 z m 167.774,4.016 c 8.578,-0.77 19.134,-2.993 25.001,-5.267 3.616,-1.401 7.86,-4.137 8.854,-5.71 0.846,-1.335 0.763,-1.781 -0.175,-0.947 -1.021,0.906 -6.77,3.66 -10.018,4.8 -10.225,3.585 -28.705,5.487 -45.619,4.692 -4.331,-0.203 -7.947,-0.3 -8.034,-0.211 -0.09,0.09 0.04,0.628 0.274,1.202 0.409,0.988 0.572,1.057 2.964,1.253 1.393,0.12 3.089,0.259 3.77,0.323 3.038,0.29 19.305,0.194 22.983,-0.135 z m 2.828,-5.447 c 21.379,-2.923 34.248,-9.332 32.234,-16.051 -0.709,-2.371 -2.392,-4.235 -5.826,-6.456 -6.851,-4.431 -19.106,-8.058 -32.772,-9.698 -7.41,-0.89 -23.306,-1.085 -30.027,-0.37 -6.385,0.679 -13.47,2.003 -17.5,3.271 -4.562,1.434 -4.526,1.383 -2.05,2.95 l 2.135,1.349 2.099,-0.848 c 2.99,-1.207 8.009,-2.497 12.585,-3.234 5.546,-0.893 23.823,-0.888 30.283,0.01 17.337,2.406 28.963,6.95 30.446,11.9 1.319,4.401 -5.671,9.065 -17.187,11.466 -8.171,1.704 -21.241,2.541 -30.807,1.972 -3.476,-0.208 -7.036,-0.516 -7.91,-0.685 -0.875,-0.169 -1.65,-0.25 -1.721,-0.179 -0.07,0.07 0.35,1.156 0.938,2.411 l 1.068,2.283 2.598,0.213 c 1.428,0.121 3.313,0.276 4.188,0.349 4.03,0.34 23.357,-0.12 27.226,-0.652 z m -6.011,-4.81 c 12.244,-1.363 20.772,-3.947 25.004,-7.579 4.93,-4.231 0.568,-9.01 -11.568,-12.673 -15.652,-4.724 -36.244,-5.747 -51.269,-2.546 -3.47,0.739 -9.547,2.618 -9.547,2.952 0,0.144 0.439,0.521 0.973,0.838 3.833,2.265 10.91,9.901 13.991,15.093 0.936,1.579 1.971,3.012 2.298,3.184 0.527,0.277 5.082,0.869 9.61,1.25 2.754,0.232 17,-0.134 20.508,-0.519 z m -120.24,-15.896 c 0,-0.09 -0.97,-0.2 -2.178,-0.228 l -2.194,-0.05 1.212,0.989 1.213,0.989 0.965,-0.759 c 0.532,-0.418 0.973,-0.839 0.982,-0.937 z m 7.44,-5.568 3.925,-2.387 -8.235,-0.221 c -12.041,-0.322 -20.504,-1.349 -29.043,-3.525 -7.829,-1.994 -14.517,-5.719 -16.837,-9.377 l -1,-1.576 -0.703,0.894 c -0.947,1.204 -1.248,3.061 -0.779,4.805 1.033,3.835 7.074,7.648 15.024,9.482 6.019,1.389 16.954,3.348 22.628,4.054 0.584,0.07 3.319,0.156 6.078,0.185 l 5.017,0.05 z m 57.401,-5.712 c 0.814,-0.565 2.035,-1.617 2.715,-2.34 l 1.238,-1.312 -1.238,0.624 c -0.68,0.343 -2.256,1.267 -3.5,2.051 -2.186,1.379 -2.297,1.652 -0.806,1.979 0.07,0.01 0.778,-0.437 1.591,-1.002 z m -44.841,-0.917 c 7.572,-1.809 9.645,-2.071 16.618,-2.096 3.695,-0.01 7.891,0.09 9.325,0.245 l 2.606,0.272 -0.154,-2.128 c -0.08,-1.17 -0.03,-2.127 0.134,-2.127 0.159,0 0.287,0.935 0.287,2.079 0,2.38 0.17,2.503 3.42,2.513 2.928,0.01 2.945,-0.01 2.945,-3.393 0,-1.679 0.149,-2.967 0.343,-2.967 0.211,0 0.258,1.106 0.12,2.884 l -0.222,2.884 1.205,-0.236 c 1.981,-0.389 9.511,-4.291 12.167,-6.306 2.861,-2.17 3.917,-3.936 4.291,-7.17 l 0.244,-2.107 -1.448,1.148 c -3.544,2.806 -12.383,6.128 -20.814,7.823 -10.803,2.172 -18.957,2.845 -34.462,2.846 -19.978,0 -28.23,-1.117 -40.218,-5.455 -5.841,-2.112 -8.065,-3.187 -10.145,-4.901 -1.282,-1.057 -3.345,-3.912 -3.345,-4.631 0,-0.195 0.452,0.36 1.005,1.231 1.361,2.146 3.51,3.915 6.543,5.389 2.859,1.389 4.726,2.01 3.687,1.227 -0.335,-0.254 -1.602,-1.018 -2.814,-1.698 -3.074,-1.726 -6.666,-5.188 -7.722,-7.442 l -0.859,-1.835 -1.13,1.307 c -1.645,1.903 -2.364,3.623 -2.529,6.051 -0.311,4.605 2.439,7.95 9.3,11.305 7.804,3.817 17.338,5.642 31.999,6.124 10.695,0.351 15.514,0.145 19.623,-0.836 z m 39.689,-7.366 c -0.417,-1.021 -0.338,-2.219 0.12,-1.765 0.21,0.21 0.329,0.839 0.266,1.396 -0.09,0.834 -0.164,0.9 -0.382,0.369 z m -26.606,-2.725 c 16.999,-1.248 28.835,-4.124 37.568,-9.126 1.215,-0.696 2.209,-1.368 2.209,-1.494 0,-0.12 -1.546,0.393 -3.437,1.154 -20.35,8.189 -51.956,10.032 -77.236,4.503 -6.696,-1.464 -11.747,-3.158 -16.82,-5.639 -3.592,-1.758 -4.775,-2.55 -6.982,-4.68 -2.533,-2.444 -2.66,-2.519 -2.66,-1.578 0,0.542 0.392,1.758 0.87,2.702 3.21,6.335 16.401,11.355 35.372,13.46 3.502,0.388 7.241,0.757 8.31,0.82 4.788,0.281 18.304,0.21 22.806,-0.12 z m 4.163,-6.721 c 20.392,-1.646 40.376,-8.683 43.528,-15.327 0.644,-1.358 0.807,-7.432 0.223,-8.346 -0.284,-0.446 -0.435,-0.39 -0.948,0.353 -4.337,6.284 -18.581,11.168 -40.425,13.862 -5.818,0.718 -29.211,0.6 -35.557,-0.18 -15.511,-1.903 -28.042,-4.798 -34.175,-7.89 -2.169,-1.095 -2.399,-1.065 -2.396,0.307 0,3.53 2.122,6.155 7.006,8.697 13.293,6.916 39.144,10.428 62.744,8.524 z m 3.527,-11.532 c -0.243,-0.09 -0.64,-0.09 -0.884,0 -0.243,0.09 -0.04,0.178 0.441,0.178 0.487,0 0.686,-0.08 0.443,-0.178 z m 8.732,-1.012 c 13.06,-2.143 23.749,-6 27.867,-10.052 2.906,-2.861 2.878,-4.34 -0.12,-6.326 -1.803,-1.195 -2.624,-1.398 -2.624,-0.65 0,1.114 -1.129,4.112 -2.102,5.581 -3.33,5.028 -13.605,9.339 -28.482,11.95 -0.973,0.171 -1.366,0.329 -0.872,0.35 0.493,0.03 3.343,-0.362 6.333,-0.853 z m -9.175,-2.086 c 8.988,-1.193 16.311,-3.103 21.694,-5.655 5.232,-2.482 5.245,-2.815 0.05,-1.421 -11.291,3.03 -18.016,4.305 -28.679,5.434 -8.113,0.858 -22.648,1.534 -27.717,1.288 -2.98,-0.144 -3.385,-0.107 -2.054,0.167 5.502,1.148 28.585,1.266 36.704,0.187 z m -15.203,-3.393 c 15.938,-1.196 31.78,-4.614 40.132,-8.659 5.49,-2.66 6.746,-4.222 5.09,-6.327 l -0.743,-0.944 0.789,-1.941 c 0.952,-2.348 0.792,-3.921 -0.583,-5.724 -0.858,-1.123 -0.988,-1.186 -1.208,-0.585 -0.135,0.37 -0.364,1.947 -0.508,3.503 l -0.262,2.828 0.746,-0.674 c 1.017,-0.919 0.938,-0.353 -0.151,1.074 -1.6,2.097 -5.907,4.103 -13.504,6.291 -14.86,4.276 -33.922,6.274 -52.781,5.531 -16.651,-0.656 -30.857,-2.484 -40.043,-5.156 -1.592,-0.462 -2.957,-0.778 -3.035,-0.701 -0.285,0.284 1.406,2.606 2.513,3.45 4.295,3.276 13.948,6.143 24.654,7.325 9.002,0.993 30.016,1.376 38.894,0.709 z m 0.708,-8.654 c 14.124,-1.429 24.7,-3.646 33.152,-6.95 5.182,-2.025 6.801,-3.649 6.801,-6.81 v -1.23 l -1.967,0.87 c -4.927,2.18 -14.991,4.628 -25.257,6.146 -13.117,1.939 -24.091,2.651 -36.744,2.385 -25.416,-0.536 -44.502,-4.102 -51.965,-9.711 l -1.198,-0.899 0.255,1.734 c 0.142,0.954 0.499,2.251 0.797,2.883 1.765,3.756 10.736,7.187 25.071,9.588 16.279,2.726 36.134,3.501 51.055,1.994 z m -3.536,-9.199 c 20.512,-1.592 34.147,-4.523 40.754,-8.762 2.761,-1.772 3.439,-2.969 3.442,-6.065 v -2.457 l -1.149,1.091 c -8.67,8.22 -56.643,12.63 -85.437,7.852 -10.225,-1.697 -17.86,-5.002 -20.247,-8.764 -0.554,-0.876 -1.009,-1.88 -1.009,-2.23 0,-0.351 -0.248,-0.639 -0.553,-0.639 -1.104,0 -4.576,1.986 -6.427,3.677 -3.421,3.124 -3.774,4.904 -1.418,7.166 3.003,2.884 7.834,4.819 16.161,6.478 6.932,1.38 13.501,2.163 24.766,2.952 5.242,0.367 24.966,0.178 31.116,-0.299 z m -0.294,-9.021 c 21.63,-1.446 39.817,-5.451 43.706,-9.624 0.986,-1.059 0.803,-1.619 -1,-3.067 l -1.387,-1.1145 -1.847,1.4605 c -6.213,4.911 -17.644,8.3 -34.759,10.307 -6.035,0.707 -27.63,0.591 -36.418,-0.196 -14.744,-1.321 -23.75,-3.637 -28.799,-7.408 l -1.926,-1.438 0.823,1.156 c 3.583,5.032 16.265,8.709 34.145,9.901 6.333,0.423 21.304,0.435 27.462,0.03 z m 2.945,-5.805 c 9.566,-1.014 18.093,-2.647 24.397,-4.672 3.768,-1.211 9.014,-3.8105 10.58,-5.2445 1.251,-1.146 1.265,-1.194 1.265,-4 0,-3.887 -0.133,-4.159 -1.536,-3.106 -2.741,2.057 -8.784,4.354 -16.781,6.379 -12.865,3.258 -30.361,4.6925 -49.332,4.0475 -17.588,-0.599 -28.559,-2.8635 -33.079,-6.8285 l -0.841,-0.738 0.252,2.635 c 0.401,4.211 1.323,5.3295 6.23,7.5635 5.238,2.387 12.195,3.694 24.549,4.613 4.67,0.348 29.29,-0.12 34.296,-0.649 z m -12.729,-8.5215 c 19.656,-0.751 38.831,-4.53 45.782,-9.023 2.52,-1.629 2.658,-2.269 0.832,-3.872 -4.033,-3.541 -15.773,-6.444 -30.152,-7.455 -7.594,-0.535 -26.801,-0.222 -33.246,0.542 -17.65,2.09 -30.718,6.148 -34.243,10.628 -1.064,1.354 -0.969,2.115 0.395,3.156 4.518,3.446 15.225,5.603 30.831,6.212 6.538,0.254 8.751,0.234 19.801,-0.188 z m -45.435,-7.804 c 0,-0.437 3.762,-2.429 6.877,-3.642 6.328,-2.463 14.436,-4.196 25.299,-5.407 6.444,-0.719 29.653,-0.604 35.856,0.178 5.619,0.708 9.166,1.395 12.47,2.416 3.105,0.959 2.69,1.149 -0.602,0.275 -3.354,-0.891 -10.166,-1.927 -16.079,-2.444 -5.928,-0.52 -23.071,-0.529 -28.992,-0.01 -13.955,1.209 -26.145,4.086 -32.967,7.781 -1.024,0.555 -1.862,0.941 -1.862,0.858 z" id="path65"/></g></svg>