<svg xmlns="http://www.w3.org/2000/svg" width="310px" height="310px" viewBox="0 0 541.8544204 541.8544204" version="1.1" id="svg5" xml:space="preserve" data-square-offset-x="169.6933252" data-square-offset-y="80.13340019999998"><defs id="defs2" style="fill: rgb(83, 93, 234);"/><g id="layer1" transform="translate(541.8544204, 0) scale(-1, 1)" style="fill: rgb(83, 93, 234);"><path style="fill: rgb(83, 93, 234);" d="m 318.2583251999996 461.5999001999986 c -0.218,-0.049 -15.101,-0.214 -33.073,-0.366 -17.972,-0.152 -39.552,-0.3548 -47.955,-0.4508 l -15.28,-0.1746 v -1.7684 c 0,-0.9727 0.08,-3.232 0.175,-5.0208 l 0.175,-3.2522 5.579,0.1658 c 9.875,0.2936 91.807,0.2543 101.227,-0.049 4.875,-0.1567 11.781,-0.3204 15.346,-0.3638 l 6.482,-0.079 0.163,4.2333 c 0.09,2.3283 0.09,4.3108 0,4.4055 -0.141,0.1492 -5.788,0.6582 -27.543,2.4826 -2.545,0.2134 -4.688,0.3741 -4.763,0.3573 -0.07,-0.017 -0.314,-0.071 -0.533,-0.1205 z m -40.345,-12.2782 c -0.187,-0.3034 0.03,-1.1649 1.622,-6.4884 2.741,-9.1518 4.028,-13.2849 7.542,-24.2093 2.035,-6.3302 3.749,-11.6595 3.808,-11.843 0.08,-0.2629 2.477,-0.319 11.293,-0.2646 l 11.185,0.069 0.176,1.9844 c 0.327,3.6876 2.33,38.5632 2.337,40.6797 0,0.4196 -37.704,0.4914 -37.963,0.072 z m 39.435,-0.3368 c -0.129,-0.6026 -0.7,-9.3873 -1.208,-18.587 -0.664,-12.0237 -1.651,-24.6124 -1.944,-24.8004 -0.167,-0.1067 -0.393,-0.2258 -0.502,-0.2646 -0.109,-0.039 -0.317,-5.4282 -0.462,-11.9767 -0.144,-6.5484 -0.384,-16.0138 -0.532,-21.0343 -0.148,-5.0205 -0.504,-18.7127 -0.791,-30.4271 -0.565,-23.0757 -0.778,-28.5619 -1.066,-27.5034 -0.194,0.7122 0.05,16.3468 0.522,33.1919 0.155,5.5298 0.403,15.5311 0.552,22.225 0.149,6.694 0.384,16.8738 0.523,22.6219 0.139,5.7481 0.254,10.9996 0.257,11.6699 v 1.2189 l -11.046,0.1941 c -6.076,0.1067 -11.082,0.228 -11.124,0.2696 -0.373,0.3643 -8.701,26.1878 -13.783,42.7392 -0.155,0.5027 -0.413,0.682 -1.079,0.747 -0.675,0.066 -0.842,0 -0.728,-0.297 0.08,-0.2104 0.406,-1.2609 0.723,-2.3345 0.856,-2.8967 6.349,-20.1044 8.647,-27.0874 2.392,-7.2674 4.465,-13.0125 4.982,-13.8045 0.29,-0.444 0.436,-2.5595 0.639,-9.2605 0.757,-24.9433 1.5,-84.3346 1.079,-86.2079 -0.398,-1.7686 -3.632,-12.741 -7.031,-23.8553 -1.52,-4.9712 -2.764,-9.1682 -2.764,-9.3265 0,-0.4046 1.495,-0.3624 1.514,0.043 0,0.1819 0.383,1.3428 0.831,2.5797 1.347,3.716 3.297,10.0031 6.125,19.7457 1.473,5.0744 2.796,9.3453 2.94,9.4908 0.174,0.1756 0.216,0.1311 0.124,-0.1323 -0.08,-0.2183 -0.395,-1.4685 -0.708,-2.7781 -1.168,-4.8791 -4.177,-15.0905 -6.875,-23.3288 -1.009,-3.081 -1.835,-5.6565 -1.835,-5.7235 0,-0.067 0.997,-0.4327 2.216,-0.8127 1.219,-0.38 5.048,-2.1259 8.509,-3.8797 3.461,-1.7538 6.141,-3.0054 5.955,-2.7813 -0.186,0.2241 -0.276,0.6165 -0.201,0.8719 1.31,4.4479 5.717,20.865 7.463,27.8046 2.773,11.0236 3.155,12.2017 2.396,7.3836 -0.212,-1.3445 -0.506,-4.7663 -0.654,-7.6039 -0.197,-3.7979 -0.443,-5.9275 -0.934,-8.0698 -0.805,-3.5154 -3.757,-14.1509 -5.129,-18.4756 l -0.993,-3.1298 0.72,-0.3722 c 0.711,-0.3677 0.725,-0.3587 1.129,0.7485 0.614,1.6785 2.309,7.4918 4.262,14.6145 0.958,3.4925 2.28,8.183 2.94,10.4234 l 1.198,4.0734 0.249,6.561 c 0.137,3.6085 0.367,6.8357 0.512,7.1714 0.216,0.5019 0.24,0.4224 0.139,-0.448 -0.07,-0.582 -0.197,-3.6777 -0.286,-6.8791 l -0.163,-5.8209 -2.513,-8.9958 c -1.383,-4.9477 -3.342,-11.903 -4.354,-15.4562 -1.266,-4.4441 -1.755,-6.5456 -1.567,-6.7336 0.172,-0.1725 0.364,-0.1806 0.519,-0.022 0.27,0.276 3.933,12.9892 6.858,23.7993 l 1.862,6.8792 0.283,6.8791 c 0.262,6.3392 0.84,23.285 1.197,35.0573 0.142,4.6722 0.629,19.9287 1.191,37.3063 0.143,4.4384 0.395,12.5793 0.56,18.091 l 0.299,10.0212 0.921,2.0173 c 4.625,10.1321 17.539,41.0372 17.539,41.9748 0,0.338 -1.229,0.3915 -8.991,0.3915 h -8.99 z m -24.963,-122.3036 c 0.07,-6.5485 0.04,-10.2394 -0.06,-8.2021 -0.2,3.8318 -0.332,20.4136 -0.161,20.2186 0.05,-0.061 0.154,-5.4681 0.224,-12.0165 z m -59.532,-23.2248 c -0.678,-0.722 -1.047,-1.7473 -2.044,-5.6844 l -0.755,-2.98 -0.943,1.7898 c -2.18,4.1358 -4.185,6.1631 -5.715,5.779 -0.808,-0.2026 -0.881,-0.6945 -0.452,-3.0251 0.197,-1.0699 0.321,-2.3201 0.275,-2.7781 l -0.08,-0.8327 -0.725,1.3796 c -0.769,1.4639 -1.461,2.0132 -2.366,1.8782 -1.154,-0.1722 -1.175,-0.839 -0.1,-2.9019 1.437,-2.7433 1.51,-3.0778 1.631,-7.4996 0.06,-2.1829 0.114,-4.2069 0.123,-4.498 0,-0.291 -0.122,-1.184 -0.29,-1.9843 l -0.305,-1.4552 -2.159,-0.041 c -2.945,-0.056 -4.736,-0.5164 -12.875,-3.3102 -8.19,-2.8112 -24.957,-8.3753 -28.267,-9.3801 -4.366,-1.3255 -5.755,-2.3856 -7.238,-5.5251 l -0.875,-1.8521 0.04,-7.8052 c 0.03,-7.5392 0.314,-21.3353 0.902,-44.5823 0.384,-15.1749 1.234,-23.6545 3.303,-32.9597 6.164,-27.7163 18.366,-50.6669 36.002,-67.7151 12.473,-12.0575 28.059,-20.9685 43.497,-24.8682 7.075,-1.7872 12.616,-2.4593 20.373,-2.4713 13.301,-0.021 25.002,2.787 37.306,8.9512 6.819,3.4155 11.556,6.4709 17.665,11.3924 12.901,10.3927 22.179,22.0105 29.567,37.027 3.324,6.7552 5.484,12.3782 7.929,20.6451 2.561,8.6585 3.391,13.836 3.835,23.9372 0.157,3.5652 0.579,12.9712 0.938,20.9021 1.197,26.4433 1.283,29.3389 0.926,31.4516 -0.488,2.8929 -1.746,5.1652 -4.095,7.3965 -2.704,2.5691 -4.458,3.3554 -16.548,7.4203 -15.558,5.231 -31.11,10.8802 -41.275,14.9927 -7.126,2.8833 -9.705,4.046 -16.345,7.3685 -3.046,1.5245 -6.597,3.1344 -7.892,3.5775 -3.123,1.0693 -9.796,2.0167 -21.8,3.0955 -1.092,0.098 -2.072,0.3103 -2.179,0.4717 -0.323,0.4866 -0.227,0.9548 0.194,0.9548 0.609,0 0.474,0.6619 -0.33,1.6178 -0.688,0.8166 -0.741,1.0715 -0.954,4.5844 -0.322,5.3181 -0.277,6.5849 0.339,9.3958 0.706,3.2183 0.707,4.1421 0,4.5157 -0.865,0.4632 -1.48,0.069 -2.085,-1.3369 -0.311,-0.7229 -0.666,-1.3143 -0.79,-1.3143 -0.547,0 -0.899,0.9413 -1.016,2.7159 -0.156,2.3792 -0.564,3.105 -1.747,3.105 -1.179,0 -1.602,-0.5264 -3.722,-4.6303 -1.853,-3.5867 -2.271,-4.2368 -2.271,-3.5262 0,0.6871 -2.411,7.1944 -2.85,7.6934 -0.503,0.5712 -1.47,0.6003 -1.92,0.058 -0.185,-0.2229 -0.626,-1.2647 -0.979,-2.3151 -0.358,-1.0625 -1.304,-2.8942 -2.134,-4.1288 l -1.491,-2.219 -0.748,1.6745 c -0.411,0.9209 -1.096,2.6618 -1.522,3.8687 -0.426,1.2068 -0.951,2.5355 -1.166,2.9527 -0.833,1.6097 -2.767,2.1323 -3.804,1.0278 z m 2.835,-1.4816 c 0.266,-0.527 0.802,-1.8438 1.191,-2.9261 0.388,-1.0823 1.062,-2.7802 1.498,-3.7731 l 0.792,-1.8052 -1.839,-3.0363 c -1.012,-1.6699 -1.894,-3.1867 -1.959,-3.3706 -0.159,-0.4439 -0.135,-0.4809 -1.761,2.7083 -0.779,1.528 -1.726,3.1948 -2.105,3.7042 -0.379,0.5093 -0.648,1.0451 -0.597,1.1906 0.05,0.1455 0.445,1.4552 0.877,2.9104 1.509,5.0829 1.864,5.7625 2.872,5.4987 0.3,-0.078 0.764,-0.5739 1.031,-1.1009 z m 20.393,-4.0314 c 0,-3.1401 -0.06,-3.5457 -0.895,-5.9687 -1.139,-3.3049 -1.476,-4.1537 -1.601,-4.0255 -0.05,0.057 -0.718,1.3188 -1.475,2.8049 -0.756,1.4862 -1.536,2.8359 -1.733,2.9993 -0.293,0.2435 -0.243,0.4006 0.28,0.8698 0.352,0.3149 1.369,1.9418 2.261,3.6153 0.892,1.6734 1.816,3.2589 2.053,3.5232 0.82,0.9162 1.11,-0.08 1.11,-3.8183 z m -9.847,3.2716 c 0.15,-0.4002 0.715,-1.9777 1.257,-3.5057 0.541,-1.528 1.082,-2.9023 1.202,-3.0541 0.13,-0.1639 -0.314,-0.9693 -1.093,-1.9844 -0.721,-0.9396 -1.814,-2.3773 -2.43,-3.1948 l -1.12,-1.4864 -1.604,2.6734 -1.604,2.6734 1.65,2.4333 c 1.105,1.6291 1.834,3.0511 2.207,4.303 0.595,1.9995 1.081,2.3605 1.535,1.1423 z m -21.068,-0.7937 c 1.134,-1.1953 2.218,-2.8012 3.398,-5.0373 l 0.879,-1.6638 -1.066,-3.1484 c -0.983,-2.9038 -1.089,-3.0969 -1.367,-2.4867 -0.25,0.5492 -1.171,3.0013 -2.421,6.4492 -0.132,0.3638 -0.37,1.89 -0.529,3.3916 -0.159,1.5016 -0.354,2.9006 -0.434,3.1089 -0.279,0.7263 0.6,0.3761 1.54,-0.6135 z m 35.413,-1.8521 c 0,-0.2547 -0.17,-1.4155 -0.379,-2.5797 -0.607,-3.3838 -0.944,-5.5792 -0.94,-6.1159 0,-0.4188 0.05,-0.4351 0.261,-0.1018 0.174,0.2697 0.258,-0.5358 0.263,-2.5136 0,-1.6007 0.08,-3.3569 0.171,-3.9026 0.09,-0.5457 0.06,-0.9891 -0.07,-0.9853 -0.411,0.012 -1.269,2.2141 -1.195,3.0702 0.04,0.4581 -0.173,1.284 -0.476,1.8482 -0.344,0.6427 -0.535,1.4619 -0.515,2.2146 l 0.03,1.1945 0.211,-1.2532 c 0.182,-1.081 0.894,-2.3162 1.164,-2.0194 0.25,0.2753 0.444,1.8667 0.209,1.7218 -0.159,-0.099 -0.33,0.6869 -0.438,2.0174 -0.137,1.6978 -0.06,2.7544 0.365,4.7823 0.297,1.4317 0.608,2.7116 0.69,2.8443 0.25,0.4049 0.647,0.2689 0.647,-0.2218 z m -39.315,-1.4655 c 0.783,-1.0275 1.442,-3.3261 1.662,-5.8029 0.177,-1.9923 0.461,-2.1282 0.728,-0.3478 0.155,1.0337 0.535,1.7144 0.796,1.425 0.05,-0.051 -0.209,-1.0452 -0.566,-2.2093 -0.564,-1.8438 -0.627,-2.4281 -0.484,-4.5316 0.16,-2.3452 0.14,-2.4652 -0.696,-4.1604 -0.726,-1.4722 -0.819,-1.8606 -0.59,-2.4799 0.149,-0.4039 0.411,-0.7046 0.583,-0.6682 0.43,0.091 0.428,0.085 -0.629,-2.0952 -0.74,-1.5272 -0.909,-2.1462 -0.794,-2.9106 0.1,-0.667 -0.03,-1.3711 -0.408,-2.249 -0.467,-1.0765 -0.527,-1.5844 -0.383,-3.2212 0.213,-2.4225 -0.485,-4.8292 -1.745,-6.0182 l -0.816,-0.7699 0.859,1.7171 c 0.822,1.6419 0.862,1.8679 0.925,5.1594 0.04,1.8932 0.198,3.7774 0.361,4.1871 0.162,0.4096 0.295,1.0792 0.295,1.488 0,0.4088 0.314,1.3042 0.697,1.9899 0.614,1.0982 0.677,1.4354 0.531,2.8323 -0.103,0.9857 -0.05,1.7958 0.132,2.1409 0.737,1.3775 1.01,3.6609 0.9,7.5297 -0.12,4.2235 -0.433,5.7067 -1.764,8.3436 -0.845,1.6735 -0.633,2.013 0.406,0.6512 z m 36.709,-2.2162 -0.226,-1.0147 -0.2,0.9902 c -0.111,0.5446 -0.12,1.1995 -0.02,1.4552 0.336,0.8728 0.701,-0.2929 0.448,-1.4307 z m -25.696,-4.8897 c 0.941,-1.9129 1.88,-3.6501 2.085,-3.8604 0.223,-0.2284 0.272,-0.4526 0.12,-0.5568 -0.14,-0.096 -0.998,-1.2126 -1.907,-2.4815 -0.91,-1.2688 -1.768,-2.3778 -1.908,-2.4643 -0.278,-0.1717 -1.045,1.4251 -1.968,4.0988 l -0.591,1.7087 1.022,3.0414 c 0.562,1.6728 1.022,3.2554 1.022,3.5168 0,1.0193 0.478,0.3443 2.125,-3.0027 z m 18.856,0.237 c 1.579,-3.1074 1.701,-3.5632 1.211,-4.5153 -0.586,-1.1374 -3.196,-5.4727 -3.295,-5.4727 -0.06,0 -0.358,0.5032 -0.671,1.1183 -0.314,0.6151 -1.265,2.1736 -2.113,3.4634 l -1.543,2.3451 2.306,3.0169 c 1.269,1.6593 2.371,3.0178 2.45,3.0189 0.08,0 0.823,-1.3375 1.655,-2.9746 z m -7.965,-3.0075 c 0.02,-0.093 -1.079,-1.7585 -2.452,-3.7018 l -2.494,-3.5334 -0.383,0.9872 c -0.21,0.543 -0.836,1.8728 -1.39,2.9551 -0.555,1.0823 -0.901,2.0348 -0.77,2.1166 0.132,0.082 0.865,1.1609 1.631,2.3979 0.765,1.2369 1.681,2.7108 2.036,3.2752 l 0.645,1.0264 1.567,-2.6774 c 0.862,-1.4725 1.587,-2.7531 1.61,-2.8458 z m 13.721,1.3004 c 0.21,-1.4063 0.201,-2.7443 -0.04,-5.1072 -0.176,-1.761 -0.406,-3.1062 -0.51,-2.9893 -0.274,0.3073 -1.657,4.3339 -1.738,5.0634 -0.04,0.3396 -0.276,0.8457 -0.528,1.1245 -0.43,0.4749 -0.431,0.5069 0,0.5069 0.503,0 0.912,0.8457 1.814,3.7555 l 0.595,1.9197 0.06,-1.184 c 0.03,-0.6512 0.191,-2.0414 0.348,-3.0895 z m -30.703,-4.505 c -0.438,-0.9065 -0.797,-1.7935 -0.797,-1.9712 0,-0.1987 -0.09,-0.2263 -0.227,-0.072 -0.707,0.7822 -1.102,6.5165 -0.548,7.972 0.273,0.7184 0.318,0.6582 1.326,-1.7687 l 1.043,-2.5124 z m 20.953,-2.6788 c 0.711,-1.2308 1.198,-2.3259 1.083,-2.4335 -0.116,-0.1076 -1.997,-0.034 -4.179,0.1625 -2.183,0.197 -4.24,0.3631 -4.57,0.3692 -0.526,0.01 -0.28,0.4364 1.976,3.4265 l 2.578,3.4156 0.91,-1.3512 c 0.5,-0.7433 1.492,-2.3583 2.202,-3.5891 z m 7.421,0.727 c 0.546,-1.7577 0.916,-3.32 0.823,-3.4717 -0.172,-0.2769 -2.984,-0.1464 -4.822,0.2237 -0.831,0.1673 -0.878,0.1401 -0.703,-0.4108 0.103,-0.3244 0.826,-1.9136 1.606,-3.5313 1.097,-2.2757 1.46,-2.8247 1.601,-2.4258 0.297,0.8373 1.883,4.1282 2.582,5.359 l 0.648,1.1392 0.327,-1.0069 c 0.179,-0.5537 0.786,-1.9269 1.348,-3.0515 0.562,-1.1245 1.022,-2.2258 1.022,-2.4473 0,-0.2216 0.111,-0.4028 0.248,-0.4028 0.421,0 0.601,2.1609 0.505,6.0637 -0.07,2.7468 -0.01,3.6318 0.197,3.341 0.163,-0.2229 0.365,-2.3341 0.463,-4.834 0.146,-3.714 0.254,-4.5464 0.662,-5.0999 0.358,-0.4865 0.535,-1.3708 0.671,-3.3442 0.101,-1.4756 0.297,-3.075 0.434,-3.5544 0.138,-0.4793 0.206,-0.9156 0.152,-0.9695 -0.05,-0.054 -0.826,1.1705 -1.715,2.7208 -1.312,2.2857 -1.617,3.04 -1.617,3.9891 0,0.9018 -0.27,1.6395 -1.176,3.2148 -0.647,1.1245 -1.256,2.4941 -1.354,3.0436 -0.256,1.4386 -0.629,0.9799 -2.108,-2.5897 -0.689,-1.6652 -1.359,-2.9621 -1.489,-2.882 -0.13,0.08 -1.064,1.8288 -2.076,3.8859 -1.811,3.6813 -1.832,3.7488 -1.345,4.2801 0.666,0.7273 3.727,5.4319 3.727,5.7282 0,0.1296 0.09,0.2341 0.198,0.2321 0.109,0 0.645,-1.4417 1.191,-3.1994 z m 5.225,-10.7941 c 0,-0.6257 0.491,-2.81 0.809,-3.5977 0.266,-0.6581 0.282,2.3429 0.02,3.2877 -0.229,0.8169 -0.827,1.0413 -0.827,0.31 z m -31.15,10.8658 c 0.543,-1.2857 0.988,-2.3917 0.988,-2.4579 0,-0.066 -0.957,-0.01 -2.126,0.1273 -1.169,0.1361 -2.092,0.3337 -2.051,0.439 0.419,1.0645 1.959,4.213 2.064,4.22 0.07,0.01 0.581,-1.0428 1.125,-2.3284 z m 7.565,-0.055 c 0.603,-1.3159 1.096,-2.4313 1.096,-2.4787 0,-0.047 -1.35,-0.026 -3,0.046 l -3,0.1323 -0.612,-0.8602 c -0.677,-0.9499 -0.646,-1.1396 0.767,-4.6999 0.865,-2.1812 0.22,-1.623 -0.764,0.6615 -0.486,1.1278 -0.964,2.1435 -1.062,2.2572 -0.181,0.2106 -3.442,-3.5801 -3.442,-4.0011 0,-0.1269 1.098,-0.3136 2.439,-0.4149 1.342,-0.1012 2.492,-0.2362 2.555,-0.2999 0.06,-0.064 -0.17,-0.3902 -0.521,-0.7256 -0.35,-0.3355 -1.705,-1.8844 -3.012,-3.442 -2.769,-3.301 -2.668,-3.3381 -3.091,1.1346 -0.145,1.5271 -0.283,2.7922 -0.308,2.8114 -0.03,0.019 -0.314,0.1172 -0.641,0.2178 -0.454,0.1396 -0.596,0.077 -0.596,-0.262 0,-0.5585 -1.329,-3.0302 -1.629,-3.0302 -0.316,0 -0.278,0.335 0.156,1.3567 0.427,1.0071 1.693,2.7893 1.888,2.6583 0.551,-0.3702 0.7,0.4389 0.736,3.9975 0.04,3.8456 -0.141,4.8942 -0.489,2.8368 -0.1,-0.5813 -0.3,-1.132 -0.449,-1.2238 -0.162,-0.1003 -0.213,0.031 -0.128,0.3294 0.08,0.2729 0.223,1.151 0.323,1.9513 0.235,1.8839 0.357,2.0493 0.842,1.1442 0.516,-0.9631 0.796,-8.2252 0.349,-9.0597 -0.162,-0.3031 -0.195,-0.5511 -0.07,-0.5511 0.341,0 1.945,1.7816 3.574,3.9687 0.813,1.0914 1.725,2.2225 2.027,2.5136 0.303,0.291 1.128,1.0853 1.834,1.765 0.706,0.6798 1.628,1.7809 2.049,2.447 0.421,0.666 0.838,1.2112 0.926,1.2114 0.09,3e-4 0.654,-1.0761 1.257,-2.392 z m 22.507,-2.5353 c 0.01,-0.6003 -0.05,-1.4589 -0.143,-1.908 l -0.164,-0.8165 -0.656,1.3163 c -0.612,1.2282 -0.634,1.409 -0.331,2.7017 0.179,0.7619 0.395,1.5044 0.48,1.6499 0.224,0.3834 0.79,-1.6637 0.814,-2.9434 z m -15.318,-6.5032 c 1.257,1.695 4.951,5.4864 5.155,5.2905 0.107,-0.103 -0.904,-1.3532 -2.248,-2.7781 -2.557,-2.7115 -3.343,-3.7056 -3.114,-3.9351 0.08,-0.075 2.066,-0.2406 4.424,-0.367 2.358,-0.1264 4.306,-0.2693 4.33,-0.3176 0.02,-0.048 -0.817,-1.7898 -1.87,-3.8702 l -1.915,-3.7825 -1.734,2.6811 c -0.954,1.4746 -2.101,3.331 -2.55,4.1253 -0.448,0.7942 -0.877,1.3813 -0.954,1.3045 -0.251,-0.2505 -1.324,1.2219 -2.579,3.537 -2.063,3.8045 -1.616,3.7475 -4.647,0.5925 -1.443,-1.503 -2.625,-2.832 -2.625,-2.9533 0,-0.3033 1.399,-0.4825 5.358,-0.6862 1.856,-0.095 3.374,-0.2704 3.374,-0.3888 0,-0.216 -0.71,-1.1197 -4.626,-5.8894 l -2.112,-2.5727 -0.483,1.3939 c -0.266,0.7667 -0.83,2.7544 -1.255,4.4171 -0.425,1.6627 -0.891,3.0969 -1.037,3.187 -0.313,0.1933 1.063,1.9096 4.013,5.0072 l 2.116,2.2215 2.126,-3.5984 2.127,-3.5983 z m -23.556,-0.065 c 0,-0.2111 -0.208,-0.5001 -0.463,-0.6423 -0.395,-0.2205 -0.483,-0.7973 -0.601,-3.9158 -0.13,-3.4513 -0.187,-3.7614 -1.016,-5.5092 -0.482,-1.0187 -1.178,-2.6855 -1.546,-3.7042 -0.545,-1.5092 -1.175,-2.7365 -2.622,-5.1124 -0.06,-0.094 -11.55,1.0646 -16.771,1.6908 -1.819,0.2182 -5.033,0.4657 -7.143,0.55 -3.518,0.1405 -3.963,0.1053 -5.357,-0.4245 -2.919,-1.109 -5.31,-4.0079 -6.447,-7.8164 -0.594,-1.9871 -0.594,-1.9993 -0.02,-28.8396 0.288,-13.4217 0.612,-23.0628 0.865,-25.7968 1.621,-17.5031 6.239,-34.2243 13.336,-48.2865 9.785,-19.3898 24.269,-34.6718 41.804,-44.1078 10.979,-5.9081 25.937,-9.3568 38.365,-8.8454 12.887,0.5303 25.899,4.451 36.817,11.0938 13.142,7.9952 24.566,19.4624 32.255,32.3781 5.475,9.1955 10.305,20.8362 12.772,30.7803 2.086,8.4076 2.08,8.3356 2.857,34.6604 0.443,14.9979 0.443,20.4489 0,22.225 -1.465,5.8455 -5.37,10.6057 -11.027,13.4399 -2.421,1.2132 -3.978,1.5706 -10.04,2.3049 -3.056,0.3702 -8.533,1.0328 -12.171,1.4723 -3.638,0.4396 -10.484,1.3226 -15.213,1.9622 -10.561,1.4282 -22.258,2.9271 -25.797,3.3057 -1.455,0.1556 -3.093,0.3499 -3.638,0.4316 l -0.992,0.1486 v 3.0017 c 0,3.4539 0.253,3.1692 -3.043,3.4226 -4.304,0.331 -7.153,0.7218 -7.462,1.0239 -0.175,0.1708 -0.751,1.5607 -1.28,3.0887 -0.529,1.5279 -1.31,3.3909 -1.736,4.14 -0.924,1.6246 -1.691,4.4931 -1.945,7.2808 l -0.186,2.028 1.013,-0.1042 c 0.557,-0.057 2.441,-0.2339 4.188,-0.3924 7.499,-0.6807 15.168,-1.6124 16.271,-1.9769 0.655,-0.2164 2.56,-1.1754 4.234,-2.1311 7.113,-4.0623 17.094,-8.6298 26.458,-12.1081 4.736,-1.7592 25.794,-9.2294 31.089,-11.0284 7.794,-2.6485 11.829,-4.1113 13.026,-4.722 1.466,-0.7477 3.127,-2.7182 3.67,-4.3529 0.419,-1.2604 0.429,-2.0937 0.139,-10.8931 -0.173,-5.2406 -0.431,-12.4453 -0.575,-16.0106 -0.143,-3.5652 -0.435,-12.2568 -0.649,-19.3146 -0.255,-8.4279 -0.527,-13.695 -0.792,-15.3458 -2.413,-15.0113 -8.313,-29.9817 -16.892,-42.8625 -4.583,-6.8808 -7.905,-10.9534 -13.384,-16.4071 -16.341,-16.2673 -35.839,-25.2253 -56.245,-25.8408 -19.312,-0.5825 -37.304,5.9298 -54.918,19.8773 -8.428,6.674 -19.042,18.9103 -24.912,28.7195 -2.108,3.5213 -6.077,11.3892 -7.742,15.3469 -6.599,15.678 -10.405,33.8296 -10.984,52.3875 -0.236,7.5585 -0.866,42.4844 -0.908,50.2709 -0.03,5.9106 0.357,6.3832 6.727,8.2047 3.83,1.095 22.811,7.3493 30.823,10.1562 3.53,1.2364 4.53,1.4828 6.02,1.4828 1.384,0 1.786,-0.086 1.786,-0.3837 z m 2.377,-0.6826 c -0.431,-0.806 -0.611,-0.47 -0.214,0.4007 0.182,0.3991 0.373,0.5997 0.424,0.4457 0.05,-0.1539 -0.04,-0.5348 -0.21,-0.8464 z m 11.363,-8.1321 0.752,-2.1871 -1.83,-1.7672 c -1.619,-1.5622 -4.563,-3.7775 -5.024,-3.7798 -0.09,-4e-4 -0.23,0.2075 -0.307,0.4622 -0.08,0.2547 -0.621,1.7668 -1.21,3.3604 -0.858,2.3224 -1.008,2.9787 -0.757,3.3073 0.173,0.2254 1.68,2.0589 3.348,4.0742 l 3.034,3.6644 0.621,-2.4737 c 0.341,-1.3606 0.959,-3.4579 1.373,-4.6607 z m 24.06,6.395 c 0.391,-0.1232 0.298,-1.4527 -0.342,-4.8428 l -0.329,-1.7465 -1.757,3.4898 -1.758,3.4899 1.913,-0.1384 c 1.051,-0.076 2.074,-0.1895 2.273,-0.252 z m -33.919,-1.0081 c -0.09,-0.6411 0,-2.0163 0.201,-3.0559 0.198,-1.0396 0.294,-2.1522 0.213,-2.4723 -0.08,-0.3202 -0.782,-1.2736 -1.559,-2.1186 -0.777,-0.845 -1.413,-1.6487 -1.413,-1.7859 0,-0.1373 -0.09,-0.2495 -0.211,-0.2495 -0.327,0 -0.08,3.3892 0.376,5.1593 0.225,0.8732 0.694,2.0275 1.042,2.5653 0.349,0.5377 0.784,1.4605 0.968,2.0505 0.437,1.3974 0.583,1.362 0.383,-0.093 z m -0.973,-3.3385 c -0.182,-0.44 -0.48,-0.8865 -0.661,-0.9922 -0.182,-0.1057 -0.415,-0.583 -0.518,-1.0607 l -0.187,-0.8684 0.682,0.632 c 0.636,0.5895 1.48,2.1957 1.48,2.8162 0,0.5607 -0.476,0.2455 -0.796,-0.5269 z m 23.357,-1.8029 1.519,-2.206 -0.543,-0.763 c -0.797,-1.1199 -3.085,-6.0531 -3.305,-7.1281 l -0.189,-0.926 0.573,0.5142 c 0.316,0.2828 1.051,1.533 1.634,2.7781 0.584,1.2452 1.364,2.7803 1.734,3.4114 l 0.672,1.1475 0.669,-0.6183 c 0.368,-0.3401 1.612,-1.7781 2.764,-3.1955 l 2.096,-2.5772 -0.04,-2.8468 c -0.02,-1.9302 0.112,-3.4431 0.424,-4.6988 0.584,-2.3491 0.592,-6.6033 0.02,-11.774 -0.421,-3.8123 -0.796,-5.6838 -1.255,-6.2476 -0.131,-0.162 -0.594,-3.6161 -1.027,-7.6757 -0.433,-4.0597 -0.94,-8.4516 -1.126,-9.7597 l -0.339,-2.3785 -1.583,-0.1697 c -2.265,-0.2428 -9.653,-0.2647 -9.655,-0.029 -0.01,1.0352 -2.581,14.6545 -3.209,16.9995 -1.203,4.4913 -1.178,4.3157 -0.596,4.1496 0.275,-0.078 1.095,-0.2171 1.822,-0.3081 1.468,-0.1836 15.301,-0.8976 15.424,-0.7961 0.04,0.035 0.144,0.4746 0.225,0.9765 l 0.148,0.9124 -1.416,0.052 c -0.779,0.029 -2.904,-0.1268 -4.723,-0.3453 -4.472,-0.537 -7.133,-0.5068 -10.156,0.1152 -2.483,0.511 -4.024,1.1209 -5.551,2.1969 -0.676,0.4768 -0.938,0.5069 -2.447,0.2813 -0.93,-0.1389 -1.69,-0.1573 -1.69,-0.041 0,0.2708 2.012,1.7334 2.673,1.9432 0.518,0.1645 0.715,1.1821 0.229,1.1821 -0.666,0 -2.069,-0.7924 -2.601,-1.4687 -0.544,-0.6913 -1.714,-3.0573 -1.561,-3.1553 0.04,-0.024 1.249,0.037 2.691,0.1376 1.441,0.1 2.84,0.1245 3.108,0.054 1.187,-0.3103 0.248,-0.5283 -2.853,-0.6623 -3.636,-0.157 -3.605,-0.1424 -4.086,-1.881 -0.155,-0.5623 -1.447,-3.7174 -2.871,-7.0115 -1.424,-3.294 -2.8,-6.6439 -3.057,-7.4443 -0.479,-1.4875 -0.814,-2.0583 -1.064,-1.8086 -0.336,0.3361 0.79,3.3428 4.869,13.0015 1.032,2.4453 1.877,4.5064 1.877,4.5803 0,0.385 -8.598,-1.3376 -9.445,-1.8923 -0.335,-0.2196 -0.609,-0.5355 -0.609,-0.7019 0,-0.1665 -0.07,-0.2338 -0.153,-0.1496 -0.08,0.084 0.02,0.4852 0.234,0.8912 0.342,0.6531 0.688,0.8061 2.997,1.3263 1.436,0.3234 3.646,0.7321 4.912,0.9083 l 2.301,0.3203 1.001,1.7121 c 0.551,0.9417 1.342,1.9984 1.757,2.3483 l 0.756,0.6362 -0.03,7.141 -0.03,7.1411 h 1.164 c 0.641,0 1.717,-0.076 2.392,-0.1683 l 1.228,-0.1683 v -4.0731 -4.0732 l -0.91,-0.7989 c -1.151,-1.0109 -1.576,-2.2849 -1.401,-4.2077 0.259,-2.858 1.418,-4.0346 4.957,-5.0322 2.843,-0.8014 6.3,-0.9372 10.848,-0.4259 2.588,0.291 4.281,0.3584 5.204,0.2073 l 1.367,-0.224 0.148,0.817 c 0.08,0.4494 0.34,2.722 0.575,5.0504 0.461,4.5608 0.38,7.33 -0.304,10.5015 -0.295,1.364 -0.369,2.5703 -0.252,4.0937 0.174,2.2814 -0.09,2.9616 -0.795,2.0339 -0.32,-0.4234 -0.372,-0.4311 -0.379,-0.057 0,0.2377 -0.276,0.504 -0.604,0.5917 -0.913,0.2448 -4.2,0.1962 -5.149,-0.076 -1.148,-0.3293 -2.965,-1.8301 -3.161,-2.6109 -0.108,-0.4274 -0.226,-0.5298 -0.36,-0.312 -0.504,0.8151 -2.557,-1.707 -3.326,-4.0856 -0.513,-1.5883 -1.167,-2.4652 -1.167,-1.5656 0,0.3064 0.236,1.076 0.524,1.7104 0.82,1.8085 0.675,4.2891 -0.409,6.9742 -0.188,0.4646 -0.161,0.4863 0.218,0.1781 0.405,-0.3286 0.995,-1.8635 1.372,-3.5648 l 0.164,-0.7409 1.422,1.2146 c 1.426,1.2179 2.512,2.9291 2.093,3.2963 -0.123,0.1079 -1.467,0.3938 -2.986,0.6353 -2.197,0.3492 -2.806,0.3711 -2.976,0.1071 -0.152,-0.234 -0.266,-0.1452 -0.388,0.3012 -0.1,0.3482 -0.561,1.7619 -1.036,3.1415 l -0.862,2.5083 3.024,3.5561 c 1.664,1.9558 3.279,3.9003 3.59,4.321 l 0.566,0.7649 1.086,-1.9062 c 0.598,-1.0485 1.771,-2.899 2.607,-4.1123 z m 8.986,0.7669 1.55,-3.0267 -1.11,-3.2572 c -0.61,-1.7914 -1.21,-3.2572 -1.334,-3.2572 -0.124,0 -0.226,0.1337 -0.226,0.2972 0,0.4696 -2.191,3.3928 -3.793,5.0593 l -1.461,1.52 0.841,1.4122 c 0.463,0.7767 1.377,2.5168 2.032,3.867 l 1.191,2.4548 0.38,-1.0214 c 0.21,-0.5617 1.078,-2.3834 1.93,-4.048 z m 4.298,1.0554 c 0.222,-0.4293 0.403,-0.9241 0.403,-1.0995 0,-0.1754 0.311,-0.7266 0.691,-1.2249 0.614,-0.8039 0.707,-1.2166 0.832,-3.663 0.08,-1.5163 0.08,-2.757 0.01,-2.757 -0.07,0 -0.906,1.1013 -1.855,2.4474 l -1.727,2.4474 0.201,1.5875 c 0.398,3.1544 0.72,3.6594 1.443,2.2621 z m 3.578,-4.5423 c 0,-0.1455 -0.119,-0.191 -0.264,-0.101 -0.146,0.09 -0.265,0.2825 -0.265,0.4281 0,0.1455 0.119,0.191 0.265,0.101 0.145,-0.09 0.264,-0.2826 0.264,-0.4281 z m -37.78,-2.4176 c 0.562,-1.3453 1.036,-2.5055 1.053,-2.5782 0.02,-0.073 -0.229,-0.7276 -0.546,-1.4552 l -0.577,-1.323 -2.969,0.09 c -1.633,0.05 -3.007,0.1271 -3.053,0.1721 -0.05,0.045 0.226,0.693 0.604,1.4399 1.371,2.7062 4.024,6.5417 4.32,6.246 0.08,-0.08 0.606,-1.2466 1.168,-2.5919 z m -5.118,0.8077 c 0,-1.3412 -0.124,-1.7797 -0.645,-2.3989 -0.6,-0.7134 -1.473,-3.2085 -1.81,-5.1763 l -0.151,-0.882 3.174,0.088 c 1.745,0.049 3.173,0.047 3.172,0 0,-0.05 -0.889,-1.7213 -1.976,-3.7136 -2.509,-4.5967 -5.043,-9.9273 -6.495,-13.6576 -0.623,-1.6008 -1.231,-3.0199 -1.35,-3.1537 -0.119,-0.1338 -1.073,-0.4607 -2.119,-0.7264 -1.047,-0.2657 -2.301,-0.7177 -2.787,-1.0046 -0.486,-0.2868 -0.883,-0.4691 -0.883,-0.4051 0,0.064 0.233,0.6254 0.518,1.2478 0.286,0.6224 1.253,3.0366 2.15,5.3649 0.896,2.3283 2.683,6.4972 3.971,9.2642 l 2.34,5.0309 0.143,3.7004 c 0.192,4.952 0.378,5.7631 1.616,7.0305 0.556,0.5695 1.04,1.0355 1.075,1.0355 0.04,0 0.06,-0.7386 0.06,-1.6412 z m 44.706,-2.2102 c 0.552,-1.447 1.492,-3.4392 2.088,-4.427 0.596,-0.9878 1.499,-2.8333 2.007,-4.101 0.507,-1.2678 1.988,-4.7458 3.291,-7.729 1.302,-2.9832 2.693,-6.3169 3.089,-7.4083 0.396,-1.0914 1.195,-3.2095 1.776,-4.7069 0.651,-1.6808 1.023,-3.0476 0.972,-3.5719 -0.07,-0.707 -0.246,-0.379 -1.062,1.957 -1.435,4.1071 -3.634,9.6262 -5.577,13.9947 -0.938,2.1101 -2.444,5.5797 -3.347,7.7102 -1.527,3.6016 -2.928,5.8146 -2.928,4.6234 0,-1.0216 -0.539,0 -1.46,2.7619 -0.655,1.966 -0.916,3.1452 -0.799,3.6106 0.152,0.6063 0.221,0.6436 0.56,0.3042 0.213,-0.2128 0.838,-1.5708 1.39,-3.0179 z m -3.395,-3.3599 v -0.766 l -2.448,0.1879 c -1.346,0.1034 -2.715,0.288 -3.042,0.4102 l -0.596,0.2223 v -3.5253 c 0,-3.3221 0.107,-4.0495 1.852,-12.62 1.019,-5.0021 1.853,-9.483 1.853,-9.9575 0,-0.4745 0.525,-3.0376 1.167,-5.6958 1.287,-5.3292 1.743,-7.6026 1.743,-8.6971 0,-0.5888 -0.148,-0.7566 -0.791,-0.8978 -0.904,-0.1987 -1.853,-1.2633 -1.859,-2.0869 0,-0.3078 -0.09,-0.692 -0.198,-0.8538 -0.196,-0.2958 -6.884,-1.0421 -7.131,-0.7955 -0.07,0.073 0.06,1.8357 0.292,3.9181 0.414,3.6959 1.478,14.8248 1.483,15.505 0,0.2652 0.461,0.3017 2.052,0.1632 1.128,-0.098 2.257,-0.2847 2.509,-0.4144 0.401,-0.207 0.437,-0.1299 0.293,0.6306 -0.233,1.2307 -0.552,1.5274 -1.643,1.5307 -1.452,0 -2.945,0.2998 -2.945,0.5826 0,0.1436 0.796,0.2139 1.853,0.1638 1.641,-0.078 1.853,-0.033 1.852,0.3891 0,0.2623 -0.408,2.584 -0.907,5.1594 -2.238,11.5546 -2.249,11.6306 -2.081,14.7366 0.09,1.6619 0.303,3.1374 0.498,3.4396 0.279,0.432 0.965,2.1891 2.109,5.4018 0.214,0.6008 4.085,-5.2089 4.085,-6.1308 z m -26.087,3.5596 c 0.788,-2.5202 0.869,-3.4921 0.29,-3.4921 -0.218,0 -0.397,-0.1191 -0.397,-0.2646 0,-0.1455 -0.164,-0.2646 -0.364,-0.2646 -0.599,0 -1.045,-0.7537 -1.386,-2.3396 l -0.322,-1.4968 -0.02,1.2411 c -0.01,0.6827 -0.12,1.3015 -0.24,1.3752 -0.119,0.074 -1.506,0.2653 -3.082,0.4256 -2.081,0.2117 -2.945,0.2119 -3.157,0 -0.193,-0.1934 -0.335,-3.1382 -0.423,-8.8105 l -0.132,-8.5199 -0.78,-1.4077 c -0.429,-0.7742 -0.965,-1.5026 -1.19,-1.6186 -0.226,-0.116 -1.959,-0.4775 -3.851,-0.8034 -1.892,-0.3258 -3.808,-0.7446 -4.259,-0.9306 l -0.819,-0.3381 1.027,2.6815 c 1.246,3.2513 4.761,10.5203 7.693,15.9106 1.188,2.1828 2.439,4.6236 2.782,5.424 0.342,0.8004 0.549,1.1127 0.459,0.6941 -0.133,-0.6197 -0.09,-0.7314 0.253,-0.6016 0.911,0.3497 3.541,2.3481 5.167,3.9268 0.946,0.9181 1.798,1.6097 1.893,1.5369 0.09,-0.073 0.482,-1.1207 0.86,-2.3287 z m -18.363,-1.4424 c 0,-0.1824 -0.419,-0.9213 -0.932,-1.6421 -0.512,-0.7207 -1.307,-2.2979 -1.765,-3.5049 -0.459,-1.2069 -0.932,-2.1944 -1.053,-2.1944 -0.32,0 -0.278,0.1929 0.516,2.3971 0.396,1.1001 1.197,2.7362 1.779,3.6357 1.034,1.5983 1.455,1.9769 1.455,1.3086 z m 48.293,-7.2091 c 1.58,-5.8086 3.623,-13.7234 4.618,-17.8913 0.578,-2.4186 1.159,-4.6814 1.291,-5.0284 0.175,-0.4614 0.811,-0.8644 2.365,-1.4999 2.971,-1.2149 3.399,-1.607 3.745,-3.4331 0.158,-0.8338 0.422,-2.2049 0.585,-3.0468 0.331,-1.7036 0.1,-2.599 -0.802,-3.0806 -0.43,-0.2302 -0.717,-0.1139 -1.656,0.6707 -0.936,0.7818 -1.287,0.9247 -1.992,0.8103 -0.977,-0.1587 -0.856,-0.5195 -1.94,5.7762 -0.301,1.7463 -0.837,4.068 -1.191,5.1594 -0.354,1.0914 -1.598,5.7348 -2.765,10.3187 -2.896,11.3784 -3.644,13.9723 -4.397,15.2607 -0.36,0.6169 -0.636,1.4938 -0.623,1.9844 0.02,0.7958 0.118,0.6788 1.033,-1.2378 0.555,-1.1641 1.333,-3.3073 1.729,-4.7625 z m -28.048,4.852 c -0.628,-0.7462 -0.686,-0.982 -0.537,-2.1828 0.12,-0.9718 0.09,-1.2359 -0.11,-0.9494 -0.349,0.5025 -0.364,2.4002 -0.03,3.2901 0.165,0.4331 0.461,0.6787 0.818,0.6787 0.538,0 0.533,-0.031 -0.145,-0.8366 z m -37.575,-0.7509 c 5.675,-0.5796 11.011,-1.0548 11.858,-1.0561 1.474,0 1.531,-0.027 1.352,-0.5976 -0.405,-1.2879 -3.725,-8.2834 -6.437,-13.5599 -2.796,-5.4394 -6.641,-13.6119 -6.641,-14.1133 0,-0.1391 -0.589,-0.8543 -1.309,-1.5895 -1.507,-1.5392 -2.029,-2.9334 -2.296,-6.1376 -0.15,-1.7957 -0.1,-2.2062 0.418,-3.2698 1.642,-3.3935 8.129,-6.7069 16.548,-8.4538 2.941,-0.61 7.244,-1.2158 11.576,-1.6294 l 1.786,-0.1706 v -15.9318 -15.9319 l 8.268,-1.3724 c 4.548,-0.7548 12.435,-2.0894 17.529,-2.9658 19.121,-3.29 33.256,-5.5968 33.402,-5.4508 0.143,0.1424 0.298,8.5063 0.753,40.6663 l 0.193,13.6558 -1.275,0.1912 c -0.701,0.1051 -1.549,0.2954 -1.884,0.4228 -0.547,0.2079 -0.581,0.3137 -0.332,1.0288 0.593,1.7001 -0.774,5.1588 -2.908,7.3576 -0.56,0.5765 -1.08,1.3336 -1.156,1.6826 -0.08,0.349 -0.332,1.3442 -0.568,2.2115 -0.346,1.2742 -0.428,2.9677 -0.428,8.8206 v 7.2437 l 0.992,-0.1545 c 0.545,-0.085 3.373,-0.4516 6.284,-0.8145 2.91,-0.363 10.054,-1.3185 15.875,-2.1235 5.82,-0.8049 17.191,-2.2939 25.267,-3.3089 9.539,-1.1987 15.226,-2.0279 16.231,-2.3664 4.528,-1.5261 8.795,-5.1866 10.881,-9.3355 1.606,-3.1931 1.834,-4.9422 1.63,-12.4983 -0.1,-3.6403 -0.297,-11.1432 -0.442,-16.673 -0.441,-16.8475 -0.679,-21.0284 -1.42,-25.0031 -1.95,-10.4507 -6.977,-23.7666 -12.745,-33.7584 -12.133,-21.0181 -31.888,-36.5587 -53.293,-41.9227 -7.366,-1.8459 -15.72,-2.6499 -22.29,-2.1451 -11.171,0.8584 -20.25,3.3601 -29.663,8.1744 -7.954,4.0678 -15.103,9.3865 -22.28,16.577 -11.948,11.9682 -20.26,25.6996 -25.998,42.9467 -4.886,14.6852 -7.012,28.1536 -7.301,46.2437 -0.08,5.0932 -0.278,15.4908 -0.437,23.1056 -0.225,10.8249 -0.218,14.1437 0.04,15.2135 1.159,4.8972 4.235,7.8452 8.186,7.8458 0.946,2e-4 6.363,-0.4739 12.039,-1.0534 z m 67.012,-2.712 c 1.359,-2.7096 3.371,-7.5262 7.099,-16.9995 2.808,-7.1322 3.314,-8.3314 3.669,-8.6866 0.173,-0.173 0.397,-0.6109 0.498,-0.9733 0.106,-0.3818 0.706,-0.9926 1.426,-1.4526 0.684,-0.4366 1.604,-1.3114 2.045,-1.9441 0.747,-1.0734 0.799,-1.3033 0.778,-3.4395 -0.02,-2.6321 -0.344,-3.4422 -1.91,-4.8571 -4.274,-3.8608 -14.114,-6.9219 -26.775,-8.3291 -6.085,-0.6764 -25.186,-0.6759 -30.956,8e-4 -5.585,0.655 -8.339,1.1298 -11.803,2.0348 -8.538,2.2309 -13.862,5.643 -13.862,8.8854 0,0.6244 0.12,1.2089 0.265,1.2988 0.15,0.093 0.265,-0.1277 0.265,-0.5082 0,-3.9154 6.428,-7.5307 17.198,-9.6726 11.846,-2.356 32.843,-2.4237 45.905,-0.1479 6.833,1.1906 12.673,2.9824 16.222,4.9776 1.659,0.9327 4.165,3.1572 4.656,4.1329 0.971,1.9327 0.05,4.5698 -2.465,7.0308 -0.887,0.8685 -1.612,1.7261 -1.612,1.9056 0,0.1796 -0.458,1.1958 -1.018,2.2584 -0.925,1.7563 -2.141,4.7118 -7.379,17.937 -0.952,2.401 -2.249,5.3917 -2.884,6.6459 -1.209,2.3881 -1.29,2.6145 -0.939,2.6145 0.119,0 0.828,-1.2204 1.577,-2.712 z m -51.489,-1.3099 c -0.868,-1.6443 -1.968,-4.0612 -2.445,-5.3708 -0.476,-1.3097 -1.667,-4.4649 -2.645,-7.0115 -2.411,-6.2742 -2.905,-7.8215 -3.044,-9.525 -0.07,-0.8004 -0.471,-2.5863 -0.9,-3.9687 -0.43,-1.3825 -0.97,-3.347 -1.2,-4.3657 -0.609,-2.692 -0.575,-2.6216 -1.751,-3.5671 -0.856,-0.6877 -1.129,-0.7933 -1.307,-0.5054 -0.124,0.2002 -0.169,0.6031 -0.101,0.8953 0.07,0.2923 0.01,1.1862 -0.121,1.9866 -0.359,2.1325 0.279,3.1483 3.615,5.7515 0.632,0.4935 1.387,2.875 1.388,4.3817 0,1.1799 1.171,5.4277 2.237,8.119 2.033,5.131 4.332,11.0725 4.783,12.3609 0.503,1.435 2.802,4.6075 2.972,4.1001 0.05,-0.1602 -0.613,-1.6366 -1.481,-3.2809 z m 48.933,-2.4315 c 0.566,-1.303 1.028,-2.4677 1.028,-2.5881 0,-0.4678 -0.503,-0.1878 -0.676,0.3764 -0.101,0.3274 -0.823,1.9235 -1.606,3.5468 -0.782,1.6233 -1.422,3.1051 -1.422,3.2929 0,0.6084 1.621,-2.195 2.676,-4.628 z m -27.282,2.7019 c 0,-0.4105 -0.126,-0.7464 -0.28,-0.7464 -0.154,0 -0.681,-0.8806 -1.172,-1.9569 -0.49,-1.0763 -1.019,-2.0359 -1.175,-2.1323 -0.322,-0.199 -0.417,5.191 -0.1,5.5108 0.103,0.1029 0.758,0.161 1.455,0.1292 1.202,-0.055 1.269,-0.097 1.269,-0.8044 z m -1.418,-5.5751 c -0.233,-0.3274 -0.686,-1.0418 -1.007,-1.5875 -0.321,-0.5457 -0.669,-0.9922 -0.774,-0.9922 -0.436,0 0.446,1.938 1.152,2.5322 0.954,0.8029 1.179,0.8198 0.629,0.048 z m -27.924,-7.3755 c -2.599,-4.98 -5.688,-11.9629 -6.633,-14.9922 -0.797,-2.5572 -1.319,-3.7392 -1.328,-3.0059 0,0.7922 1.399,5.5553 2.25,7.6107 1.956,4.7236 7.086,14.398 7.446,14.0387 0.06,-0.062 -0.719,-1.705 -1.735,-3.6513 z m -0.07,-3.0075 c -0.293,-0.8694 -0.576,-1.9994 -0.629,-2.5111 -0.05,-0.5117 -0.314,-1.6447 -0.581,-2.5179 -0.431,-1.4105 -0.569,-1.5972 -1.239,-1.6747 -0.549,-0.063 -0.713,0.01 -0.603,0.2646 0.08,0.1935 0.891,2.1113 1.793,4.2617 0.903,2.1505 1.675,3.8758 1.717,3.834 0.04,-0.042 -0.164,-0.7872 -0.458,-1.6566 z m 26.495,-2.9043 c 0.617,-0.7433 0.03,-0.7755 -0.652,-0.036 -0.365,0.3941 -0.664,0.7741 -0.664,0.8445 0,0.2166 0.95,-0.3666 1.316,-0.8087 z m 30.562,-0.5595 c 2.438,-0.3933 4.402,-0.8429 4.625,-1.0583 0.532,-0.514 0.387,-0.5046 -4.436,0.2869 -2.217,0.3638 -4.313,0.6614 -4.659,0.6614 -0.346,0 -0.697,0.1786 -0.781,0.3969 -0.209,0.5449 0.252,0.5198 5.251,-0.2869 z m -50.56,-0.9067 c -0.148,-0.1472 -1.136,-0.5082 -2.197,-0.8022 -1.061,-0.294 -2.393,-0.7713 -2.96,-1.0607 -0.845,-0.4311 -1.032,-0.4559 -1.032,-0.1372 0,0.2603 0.941,0.6963 2.845,1.319 2.983,0.9757 3.806,1.1432 3.344,0.6811 z m 20.449,-1.1876 c 0.657,-2.5143 2.188,-10.3314 2.721,-13.8907 0.295,-1.9645 0.602,-3.9615 0.683,-4.4378 l 0.147,-0.8659 -4.842,0.072 -4.841,0.072 -0.07,9.915 c -0.04,5.4533 -0.01,10.071 0.06,10.2616 0.101,0.2625 0.82,0.3284 2.966,0.2714 l 2.832,-0.075 z m -7.792,-8.8635 -0.07,-10.0542 h -0.879 c -0.484,0 -1.786,0.076 -2.892,0.17 -1.99,0.1682 -2.013,0.179 -2.18,0.9922 -0.09,0.4522 -0.403,1.3224 -0.691,1.9338 l -0.524,1.1116 0.971,2.6997 c 0.534,1.4849 1.891,4.8542 3.014,7.4874 1.124,2.6331 2.12,4.9959 2.213,5.2506 0.09,0.2546 0.383,0.463 0.642,0.4631 0.445,10e-5 0.467,-0.5605 0.399,-10.0542 z m -3.962,9.2006 c -0.852,-1.0509 -5.45,-12.0745 -5.769,-13.8309 -0.123,-0.6805 -0.557,-1.4576 -1.214,-2.1769 -0.562,-0.6152 -1.021,-1.2998 -1.021,-1.5213 0,-0.4963 -0.05,-0.4963 -2.431,-5e-4 -3.224,0.6703 -4.713,1.1695 -4.713,1.5802 0,0.6434 -0.828,2.8765 -1.319,3.5553 -0.414,0.5742 -0.428,0.801 -0.129,2.1167 0.184,0.8105 0.589,2.6096 0.9,3.998 l 0.566,2.5245 2.174,0.8221 c 3.137,1.1861 7.609,2.4556 10.508,2.9828 1.382,0.2514 2.56,0.4189 2.617,0.3721 0.06,-0.047 -0.02,-0.2367 -0.169,-0.4221 z m 50.635,-0.3079 c 1.029,-0.4932 1.945,-1.0885 2.035,-1.3229 0.208,-0.5428 0.06,-0.5361 -0.802,0.037 -0.385,0.2547 -1.354,0.7011 -2.154,0.9922 -0.8,0.291 -1.503,0.678 -1.563,0.8599 -0.176,0.5389 0.499,0.3849 2.484,-0.5661 z m -8.497,-0.7081 c 2.308,-0.4461 4.404,-0.922 4.657,-1.0574 0.314,-0.1683 0.519,-0.7283 0.645,-1.7685 0.101,-0.8373 0.456,-3.1128 0.787,-5.0568 l 0.603,-3.5345 -0.633,-1.3603 c -0.349,-0.7482 -0.635,-1.6198 -0.636,-1.9369 0,-0.5861 -0.307,-0.6897 -3.839,-1.3083 -0.437,-0.076 -1.003,-0.1977 -1.257,-0.2694 -0.26,-0.073 -0.463,0.012 -0.463,0.1933 0,0.1779 -0.281,0.692 -0.624,1.1423 -0.402,0.5288 -0.693,1.3808 -0.82,2.4062 -0.191,1.533 -2.096,9.5331 -2.882,12.1047 -0.295,0.9617 -0.309,1.2568 -0.06,1.2568 0.179,0 2.214,-0.3651 4.522,-0.8112 z m 14.748,-7.9567 c -0.19,-0.7264 -0.523,-0.3595 -0.649,0.7142 -0.109,0.9368 -0.106,0.9408 0.333,0.3598 0.243,-0.3231 0.386,-0.8064 0.316,-1.074 z m -81.138,-0.5743 c -0.31,-1.8478 -0.686,-2.1278 -0.686,-0.5103 0,0.7201 0.754,2.6154 0.943,2.3698 0.02,-0.032 -0.09,-0.8687 -0.257,-1.8595 z m 82.761,-1.6381 c 0.13,-0.5796 0.105,-0.6867 -0.09,-0.3968 -0.148,0.2183 -0.27,0.625 -0.273,0.904 0,0.6769 0.146,0.4657 0.364,-0.5072 z m -80.139,-0.6614 c 0,-0.7252 -0.59,-1.0254 -0.822,-0.4189 -0.219,0.5707 0.09,1.2817 0.491,1.1464 0.182,-0.061 0.331,-0.388 0.331,-0.7275 z m 73.707,-1.8919 c 0.236,-0.4409 0.123,-0.5708 -0.867,-0.9989 -1.479,-0.6393 -2.329,-0.8897 -2.329,-0.6858 0,0.5209 0.904,1.7651 1.514,2.085 0.822,0.4308 1.298,0.3175 1.682,-0.4003 z m -68.955,-0.8201 c 0.199,-0.4729 0.331,-0.8911 0.293,-0.9292 -0.04,-0.038 -0.645,0.1855 -1.349,0.497 -1.189,0.5256 -1.245,0.5924 -0.784,0.9292 0.826,0.6044 1.448,0.4367 1.84,-0.497 z m 78.833,-0.8619 c 0.09,-0.3648 0.105,-2.5973 0.03,-4.9609 -0.08,-2.3636 -0.261,-11.2627 -0.412,-19.7756 -0.151,-8.513 -0.341,-16.466 -0.422,-17.6735 l -0.149,-2.1953 -1.232,0.1744 c -3.054,0.4322 -45.287,7.539 -50.786,8.5461 -1.498,0.2742 -2.807,0.5829 -2.91,0.686 -0.103,0.103 -0.228,5.7436 -0.278,12.5347 l -0.09,12.3474 11.467,0.01 c 9.446,0.01 12.119,0.09 15.171,0.4814 7.773,0.9961 15.086,2.7517 19.446,4.6686 2.944,1.2942 6.508,3.5872 7.58,4.8771 0.975,1.1729 2.323,1.3206 2.584,0.283 z m -66.025,-1.28 c 0.163,-0.1957 0.374,-0.749 0.47,-1.2295 0.17,-0.8487 0.154,-0.8684 -0.558,-0.6896 -0.403,0.1012 -1.076,0.2526 -1.496,0.3366 -0.912,0.1824 -0.958,0.5059 -0.188,1.3261 0.647,0.6882 1.332,0.7873 1.772,0.2564 z m 44.24,-0.3297 c 0.414,-0.4996 0.314,-0.5776 -1.022,-0.7912 -1.165,-0.1863 -1.427,0.068 -0.759,0.7372 0.491,0.4908 1.395,0.5183 1.781,0.054 z m -22.378,-37.6976 c 5.821,-1.0233 12.786,-2.2166 15.479,-2.6517 2.692,-0.4352 7.573,-1.2628 10.847,-1.8392 3.275,-0.5764 8.513,-1.4432 11.642,-1.9262 l 5.689,-0.8782 0.08,-1.6347 c 0.06,-1.3423 0,-1.6346 -0.336,-1.6346 -0.557,0 -25.782,4.2549 -41.546,7.0082 -2.765,0.4829 -7.081,1.2076 -9.592,1.6104 l -4.564,0.7324 v 1.6865 1.6864 l 0.86,-0.1493 c 0.473,-0.082 5.623,-0.9866 11.443,-2.01 z" id="path15"/></g></svg>